<?xml version="1.0" encoding="UTF-8" standalone="no"?>
<!-- Generator: Adobe Illustrator 19.0.0, SVG Export Plug-In . SVG Version: 6.00 Build 0)  -->

<svg
   xmlns:dc="http://purl.org/dc/elements/1.1/"
   xmlns:cc="http://creativecommons.org/ns#"
   xmlns:rdf="http://www.w3.org/1999/02/22-rdf-syntax-ns#"
   xmlns:svg="http://www.w3.org/2000/svg"
   xmlns="http://www.w3.org/2000/svg"
   xmlns:sodipodi="http://sodipodi.sourceforge.net/DTD/sodipodi-0.dtd"
   xmlns:inkscape="http://www.inkscape.org/namespaces/inkscape"
   width="64px"
   height="64px"
   viewBox="0 0 64 64"
   version="1.1"
   id="svg23"
   sodipodi:docname="pop-email.svg"
   inkscape:version="0.92.5 (2060ec1f9f, 2020-04-08)">
  <metadata
     id="metadata29">
    <rdf:RDF>
      <cc:Work
         rdf:about="">
        <dc:format>image/svg+xml</dc:format>
        <dc:type
           rdf:resource="http://purl.org/dc/dcmitype/StillImage" />
      </cc:Work>
    </rdf:RDF>
  </metadata>
  <defs
     id="defs27" />
  <sodipodi:namedview
     pagecolor="#ffffff"
     bordercolor="#666666"
     borderopacity="1"
     objecttolerance="10"
     gridtolerance="10"
     guidetolerance="10"
     inkscape:pageopacity="0"
     inkscape:pageshadow="2"
     inkscape:window-width="1920"
     inkscape:window-height="1010"
     id="namedview25"
     showgrid="false"
     inkscape:zoom="3.6875"
     inkscape:cx="32.542373"
     inkscape:cy="32"
     inkscape:window-x="0"
     inkscape:window-y="0"
     inkscape:window-maximized="1"
     inkscape:current-layer="svg23" />
  <g
     id="surface1"
     transform="matrix(1.01,0,0,1.01,-0.32041016,-0.31796875)">
    <path
       style="fill:#000000;fill-opacity:1;fill-rule:evenodd;stroke:none"
       d="m 9.058594,6.703125 h 45.964844 c 4,0 7.242187,3.242187 7.242187,7.238281 v 35.710938 c 0,3.996094 -3.242187,7.238281 -7.242187,7.238281 H 9.058594 c -4,0 -7.242188,-3.242187 -7.242188,-7.238281 V 13.941406 c 0,-3.996094 3.242188,-7.238281 7.242188,-7.238281 z m 0,0"
       id="path2"
       inkscape:connector-curvature="0" />
    <path
       style="fill:#78ccf5;fill-opacity:1;fill-rule:nonzero;stroke:none"
       d="m 59.558594,53.386719 c -1.144532,1.71875 -2.839844,2.714843 -4.632813,2.714843 H 9.074219 c -1.792969,0 -3.488281,-0.996093 -4.632813,-2.714843 l 22.128906,-23.046875 2.292969,1.960937 c 1.886719,1.628907 4.386719,1.628907 6.273438,0 l 2.292969,-1.960937 z m 0,0"
       id="path4"
       inkscape:connector-curvature="0" />
    <path
       style="fill:#9ef0ff;fill-opacity:1;fill-rule:nonzero;stroke:none"
       d="m 59.898438,11.125 -22.46875,19.214844 -2.292969,1.960937 c -1.886719,1.628907 -4.386719,1.628907 -6.273438,0 L 26.570312,30.339844 4.101562,11.09375 C 5.234375,9.054688 7.089844,7.839844 9.074219,7.835938 h 45.851562 c 1.992188,-0.015626 3.859375,1.21875 4.972657,3.289062 z m 0,0"
       id="path6"
       inkscape:connector-curvature="0" />
    <path
       style="fill:#1e94f3;fill-opacity:1;fill-rule:nonzero;stroke:none"
       d="M 26.570312,30.339844 4.441406,53.386719 C 3.535156,52.035156 3.039062,50.324219 3.039062,48.558594 V 15.378906 c -0.00781,-1.53125 0.363282,-3.027344 1.0625,-4.285156 z m 0,0"
       id="path8"
       inkscape:connector-curvature="0" />
    <path
       style="fill:#1e94f3;fill-opacity:1;fill-rule:nonzero;stroke:none"
       d="m 60.960938,15.378906 v 33.179688 c 0,1.765625 -0.496094,3.476562 -1.402344,4.828125 L 37.429688,30.339844 59.898438,11.125 c 0.695312,1.246094 1.066406,2.730469 1.0625,4.253906 z m 0,0"
       id="path10"
       inkscape:connector-curvature="0" />
    <path
       style="fill:none;stroke:#000000;stroke-width:10.13032341;stroke-linecap:butt;stroke-linejoin:miter;stroke-miterlimit:4;stroke-opacity:1"
       d="M 32.812563,88.750169 240.28171,270.37552"
       transform="scale(0.125)"
       id="path12"
       inkscape:connector-curvature="0" />
    <path
       style="fill:none;stroke:#000000;stroke-width:10.13032341;stroke-linecap:butt;stroke-linejoin:miter;stroke-miterlimit:4;stroke-opacity:1"
       d="M 479.18841,89.00017 271.71927,270.62552"
       transform="scale(0.125)"
       id="path14"
       inkscape:connector-curvature="0" />
    <path
       style="fill:none;stroke:#000000;stroke-width:10.1232338;stroke-linecap:butt;stroke-linejoin:miter;stroke-miterlimit:4;stroke-opacity:1"
       d="M 209.8754,242.43796 35.531318,427.09456"
       transform="scale(0.125)"
       id="path16"
       inkscape:connector-curvature="0" />
    <path
       style="fill:none;stroke:#000000;stroke-width:10.1232338;stroke-linecap:butt;stroke-linejoin:miter;stroke-miterlimit:4;stroke-opacity:1"
       d="m 302.12558,242.43796 174.34408,184.6566"
       transform="scale(0.125)"
       id="path18"
       inkscape:connector-curvature="0" />
    <path
       style="fill:none;stroke:#000000;stroke-width:10.76899433;stroke-linecap:butt;stroke-linejoin:miter;stroke-miterlimit:4;stroke-opacity:1"
       d="m 243.31296,271.81302 c 0.59375,1.84375 1.84376,-0.625 2.62501,0 0.28125,0.21875 0.375,0.8125 0.65625,1.03125 0.375,0.3125 0.90625,-0.3125 1.3125,0 0.28125,0.21875 0.375,0.8125 0.65625,1.03125 0.1875,0.15625 0.4375,0 0.65625,0 0.21876,0 0.43751,0 0.65626,0 0.21875,0 0.4375,0 0.65625,0 0.21875,0 0.46875,-0.15625 0.65625,0 0.28125,0.21875 0.375,0.8125 0.65625,1.03125 0.1875,0.15625 3.50001,0 3.96876,0 0.21875,0 0.4375,0 0.65625,0 0.21875,0 0.46875,0.15625 0.65625,0 0.28125,-0.21875 0.375,-0.8125 0.65625,-1.03125 0.1875,-0.15625 0.4375,0 0.65625,0 0.21875,0 0.4375,0 0.65625,0 1.31251,0 2.62501,0 3.93751,0 0.15625,0 1.96875,0.0312 2.00001,0 1.09375,-1.71875 -2.43751,-1.03125 1.3125,-1.03125 1.75,0 3.5,0 5.25001,0 1.75,0 -0.21875,0.34375 0.65625,-1.03125 0.15625,-0.25 0.84375,-0.1875 0.65625,0 -0.28125,0.25 -0.65625,0.1875 -0.96875,0.28125"
       transform="scale(0.125)"
       id="path20"
       inkscape:connector-curvature="0" />
  </g>
</svg>
