
<svg xmlns="http://www.w3.org/2000/svg" xmlns:xlink="http://www.w3.org/1999/xlink" width="64px" height="64px" viewBox="0 0 64 64" version="1.1">
<g id="surface1">
<path style=" stroke:none;fill-rule:nonzero;fill:rgb(100%,73.333335%,52.156866%);fill-opacity:1;" d="M 46.960938 15.414062 C 46.960938 19.648438 45.441406 23.316406 42.445312 26.3125 C 39.445312 29.308594 35.78125 30.828125 31.542969 30.828125 L 31.535156 30.828125 C 27.304688 30.828125 23.640625 29.308594 20.644531 26.3125 C 17.648438 23.316406 16.128906 19.648438 16.128906 15.414062 C 16.128906 11.179688 17.648438 7.511719 20.644531 4.515625 C 23.640625 1.519531 27.304688 0 31.535156 0 L 31.542969 0 C 35.777344 0 39.445312 1.519531 42.445312 4.515625 C 45.441406 7.511719 46.960938 11.179688 46.960938 15.414062 Z M 46.960938 15.414062 "/>
<path style=" stroke:none;fill-rule:nonzero;fill:rgb(41.568628%,66.274512%,100%);fill-opacity:1;" d="M 58.644531 52.992188 C 58.644531 56.335938 57.582031 59.039062 55.488281 61.03125 C 53.421875 63.003906 50.683594 64 47.355469 64 L 16.539062 64 C 13.210938 64 10.476562 63.003906 8.40625 61.03125 C 6.3125 59.039062 5.25 56.332031 5.25 52.992188 C 5.25 51.707031 5.292969 50.4375 5.378906 49.214844 C 5.464844 47.964844 5.640625 46.601562 5.898438 45.167969 C 6.15625 43.722656 6.492188 42.355469 6.890625 41.105469 C 7.304688 39.808594 7.867188 38.535156 8.5625 37.3125 C 9.28125 36.042969 10.132812 34.9375 11.082031 34.027344 C 12.078125 33.074219 13.296875 32.308594 14.703125 31.75 C 16.105469 31.195312 17.660156 30.914062 19.324219 30.914062 C 19.976562 30.914062 20.609375 31.183594 21.828125 31.976562 C 22.589844 32.472656 23.46875 33.039062 24.441406 33.660156 C 25.277344 34.195312 26.414062 34.695312 27.816406 35.148438 C 29.046875 35.546875 30.300781 35.769531 31.535156 35.808594 C 31.671875 35.8125 31.808594 35.816406 31.945312 35.816406 C 33.320312 35.816406 34.707031 35.589844 36.078125 35.148438 C 37.480469 34.695312 38.617188 34.195312 39.453125 33.660156 C 40.433594 33.035156 41.3125 32.46875 42.0625 31.976562 C 43.28125 31.183594 43.914062 30.914062 44.570312 30.914062 C 46.230469 30.914062 47.785156 31.195312 49.191406 31.75 C 50.597656 32.308594 51.816406 33.074219 52.8125 34.027344 C 53.761719 34.9375 54.609375 36.042969 55.332031 37.3125 C 56.027344 38.535156 56.589844 39.808594 57.003906 41.101562 C 57.402344 42.355469 57.738281 43.722656 57.996094 45.167969 C 58.253906 46.605469 58.429688 47.964844 58.515625 49.210938 C 58.601562 50.429688 58.644531 51.703125 58.644531 52.992188 Z M 58.644531 52.992188 "/>
<path style=" stroke:none;fill-rule:nonzero;fill:rgb(96.078432%,65.882355%,42.352942%);fill-opacity:1;" d="M 31.542969 30.828125 L 31.535156 30.828125 L 31.535156 0 L 31.542969 0 C 35.777344 0 39.445312 1.519531 42.445312 4.515625 C 45.441406 7.511719 46.960938 11.179688 46.960938 15.414062 C 46.960938 19.648438 45.441406 23.316406 42.445312 26.3125 C 39.445312 29.308594 35.78125 30.828125 31.542969 30.828125 Z M 31.542969 30.828125 "/>
<path style=" stroke:none;fill-rule:nonzero;fill:rgb(14.901961%,50.980395%,100%);fill-opacity:1;" d="M 58.644531 52.992188 C 58.644531 56.335938 57.582031 59.039062 55.488281 61.03125 C 53.421875 63.003906 50.683594 64 47.355469 64 L 31.535156 64 L 31.535156 35.808594 C 31.671875 35.8125 31.808594 35.816406 31.945312 35.816406 C 33.320312 35.816406 34.707031 35.589844 36.078125 35.148438 C 37.480469 34.695312 38.617188 34.195312 39.453125 33.660156 C 40.433594 33.035156 41.3125 32.46875 42.0625 31.976562 C 43.28125 31.183594 43.914062 30.914062 44.570312 30.914062 C 46.230469 30.914062 47.785156 31.195312 49.191406 31.75 C 50.597656 32.308594 51.816406 33.074219 52.8125 34.027344 C 53.761719 34.9375 54.609375 36.042969 55.332031 37.3125 C 56.027344 38.535156 56.589844 39.808594 57.003906 41.101562 C 57.402344 42.355469 57.738281 43.722656 58 45.167969 C 58.253906 46.605469 58.429688 47.964844 58.515625 49.210938 C 58.601562 50.429688 58.644531 51.703125 58.644531 52.992188 Z M 58.644531 52.992188 "/>
</g>
</svg>
