
<svg xmlns="http://www.w3.org/2000/svg" xmlns:xlink="http://www.w3.org/1999/xlink" width="64px" height="64px" viewBox="0 0 64 64" version="1.1">
<g id="surface1">
<path style=" stroke:none;fill-rule:nonzero;fill:rgb(92.941177%,68.627453%,52.156866%);fill-opacity:1;" d="M 41.3125 9.832031 C 41.3125 14.101562 38.4375 17.703125 34.519531 18.800781 C 33.71875 19.027344 32.875 19.144531 32 19.144531 C 26.855469 19.144531 22.6875 14.976562 22.6875 9.832031 C 22.6875 4.6875 26.855469 0.515625 32 0.515625 C 32.875 0.515625 33.71875 0.636719 34.519531 0.863281 C 38.4375 1.960938 41.3125 5.558594 41.3125 9.832031 Z M 41.3125 9.832031 "/>
<path style=" stroke:none;fill-rule:nonzero;fill:rgb(0%,69.411767%,30.980393%);fill-opacity:1;" d="M 44.566406 28.214844 L 44.566406 35.28125 C 44.566406 35.976562 44 36.542969 43.304688 36.542969 L 20.695312 36.542969 C 20 36.542969 19.433594 35.976562 19.433594 35.28125 L 19.433594 28.214844 C 19.433594 23.203125 23.492188 19.144531 28.503906 19.144531 L 35.496094 19.144531 C 40.507812 19.144531 44.566406 23.203125 44.566406 28.214844 Z M 44.566406 28.214844 "/>
<path style=" stroke:none;fill-rule:nonzero;fill:rgb(96.862745%,75.294119%,60.392159%);fill-opacity:1;" d="M 41.3125 9.832031 C 41.3125 14.101562 38.4375 17.703125 34.519531 18.800781 C 30.597656 17.703125 27.726562 14.101562 27.726562 9.832031 C 27.726562 5.558594 30.597656 1.960938 34.519531 0.863281 C 38.4375 1.960938 41.3125 5.558594 41.3125 9.832031 Z M 41.3125 9.832031 "/>
<path style=" stroke:none;fill-rule:nonzero;fill:rgb(0%,91.764706%,30.980393%);fill-opacity:1;" d="M 44.566406 28.214844 L 44.566406 35.28125 C 44.566406 35.976562 44 36.542969 43.304688 36.542969 L 23.71875 36.542969 C 23.023438 36.542969 22.457031 35.976562 22.457031 35.28125 L 22.457031 28.214844 C 22.457031 23.203125 26.515625 19.144531 31.527344 19.144531 L 35.496094 19.144531 C 40.507812 19.144531 44.566406 23.203125 44.566406 28.214844 Z M 44.566406 28.214844 "/>
<path style=" stroke:none;fill-rule:nonzero;fill:rgb(92.941177%,68.627453%,52.156866%);fill-opacity:1;" d="M 22.382812 36.617188 C 22.382812 40.886719 19.507812 44.488281 15.589844 45.585938 C 14.789062 45.8125 13.945312 45.933594 13.070312 45.933594 C 7.925781 45.933594 3.757812 41.761719 3.757812 36.617188 C 3.757812 31.472656 7.925781 27.300781 13.070312 27.300781 C 13.945312 27.300781 14.789062 27.421875 15.589844 27.648438 C 19.507812 28.746094 22.382812 32.347656 22.382812 36.617188 Z M 22.382812 36.617188 "/>
<path style=" stroke:none;fill-rule:nonzero;fill:rgb(10.980392%,52.549022%,55.686277%);fill-opacity:1;" d="M 25.636719 55 L 25.636719 62.066406 C 25.636719 62.761719 25.070312 63.328125 24.375 63.328125 L 1.765625 63.328125 C 1.070312 63.328125 0.503906 62.761719 0.503906 62.066406 L 0.503906 55 C 0.503906 49.988281 4.5625 45.933594 9.574219 45.933594 L 16.566406 45.933594 C 21.578125 45.933594 25.636719 49.988281 25.636719 55 Z M 25.636719 55 "/>
<path style=" stroke:none;fill-rule:nonzero;fill:rgb(96.862745%,75.294119%,60.392159%);fill-opacity:1;" d="M 22.382812 36.617188 C 22.382812 40.886719 19.507812 44.488281 15.589844 45.585938 C 11.667969 44.488281 8.796875 40.886719 8.796875 36.617188 C 8.796875 32.347656 11.667969 28.746094 15.589844 27.648438 C 19.507812 28.746094 22.382812 32.347656 22.382812 36.617188 Z M 22.382812 36.617188 "/>
<path style=" stroke:none;fill-rule:nonzero;fill:rgb(25.098041%,76.862746%,87.450981%);fill-opacity:1;" d="M 25.636719 55 L 25.636719 62.066406 C 25.636719 62.761719 25.070312 63.328125 24.375 63.328125 L 4.789062 63.328125 C 4.089844 63.328125 3.527344 62.761719 3.527344 62.066406 L 3.527344 55 C 3.527344 49.988281 7.585938 45.933594 12.597656 45.933594 L 16.566406 45.933594 C 21.578125 45.933594 25.636719 49.988281 25.636719 55 Z M 25.636719 55 "/>
<path style=" stroke:none;fill-rule:nonzero;fill:rgb(92.941177%,68.627453%,52.156866%);fill-opacity:1;" d="M 60.242188 36.617188 C 60.242188 40.886719 57.367188 44.488281 53.449219 45.585938 C 52.648438 45.8125 51.804688 45.933594 50.929688 45.933594 C 45.785156 45.933594 41.617188 41.761719 41.617188 36.617188 C 41.617188 31.472656 45.785156 27.300781 50.929688 27.300781 C 51.804688 27.300781 52.648438 27.421875 53.449219 27.648438 C 57.367188 28.746094 60.242188 32.347656 60.242188 36.617188 Z M 60.242188 36.617188 "/>
<path style=" stroke:none;fill-rule:nonzero;fill:rgb(84.313726%,18.039216%,18.431373%);fill-opacity:1;" d="M 63.496094 55 L 63.496094 62.066406 C 63.496094 62.761719 62.929688 63.328125 62.234375 63.328125 L 39.625 63.328125 C 38.929688 63.328125 38.363281 62.761719 38.363281 62.066406 L 38.363281 55 C 38.363281 49.988281 42.421875 45.933594 47.433594 45.933594 L 54.425781 45.933594 C 59.4375 45.933594 63.496094 49.988281 63.496094 55 Z M 63.496094 55 "/>
<path style=" stroke:none;fill-rule:nonzero;fill:rgb(96.862745%,75.294119%,60.392159%);fill-opacity:1;" d="M 60.242188 36.617188 C 60.242188 40.886719 57.367188 44.488281 53.449219 45.585938 C 49.527344 44.488281 46.65625 40.886719 46.65625 36.617188 C 46.65625 32.347656 49.527344 28.746094 53.449219 27.648438 C 57.367188 28.746094 60.242188 32.347656 60.242188 36.617188 Z M 60.242188 36.617188 "/>
<path style=" stroke:none;fill-rule:nonzero;fill:rgb(100%,45.882353%,23.137255%);fill-opacity:1;" d="M 63.496094 55 L 63.496094 62.066406 C 63.496094 62.761719 62.929688 63.328125 62.234375 63.328125 L 42.644531 63.328125 C 41.949219 63.328125 41.386719 62.761719 41.386719 62.066406 L 41.386719 55 C 41.386719 49.988281 45.445312 45.933594 50.457031 45.933594 L 54.425781 45.933594 C 59.4375 45.933594 63.496094 49.988281 63.496094 55 Z M 63.496094 55 "/>
<path style=" stroke:none;fill-rule:nonzero;fill:rgb(28.627452%,7.450981%,32.156864%);fill-opacity:1;" d="M 31.136719 26.691406 C 31.136719 27.835938 32.863281 27.835938 32.863281 26.691406 C 32.863281 25.550781 31.136719 25.550781 31.136719 26.691406 Z M 31.136719 26.691406 "/>
<path style=" stroke:none;fill-rule:nonzero;fill:rgb(28.627452%,7.450981%,32.156864%);fill-opacity:1;" d="M 32 29.167969 C 30.859375 29.167969 30.855469 30.894531 32 30.894531 C 33.140625 30.894531 33.144531 29.167969 32 29.167969 Z M 32 29.167969 "/>
<path style=" stroke:none;fill-rule:nonzero;fill:rgb(28.627452%,7.450981%,32.156864%);fill-opacity:1;" d="M 31.136719 33.367188 C 31.136719 34.511719 32.863281 34.511719 32.863281 33.367188 C 32.863281 32.226562 31.136719 32.226562 31.136719 33.367188 Z M 31.136719 33.367188 "/>
<path style=" stroke:none;fill-rule:nonzero;fill:rgb(28.627452%,7.450981%,32.156864%);fill-opacity:1;" d="M 12.207031 53.566406 C 12.207031 54.710938 13.933594 54.710938 13.933594 53.566406 C 13.933594 52.425781 12.207031 52.425781 12.207031 53.566406 Z M 12.207031 53.566406 "/>
<path style=" stroke:none;fill-rule:nonzero;fill:rgb(28.627452%,7.450981%,32.156864%);fill-opacity:1;" d="M 13.070312 56.042969 C 11.929688 56.042969 11.925781 57.769531 13.070312 57.769531 C 14.210938 57.769531 14.214844 56.042969 13.070312 56.042969 Z M 13.070312 56.042969 "/>
<path style=" stroke:none;fill-rule:nonzero;fill:rgb(28.627452%,7.450981%,32.156864%);fill-opacity:1;" d="M 12.207031 60.242188 C 12.207031 61.386719 13.933594 61.386719 13.933594 60.242188 C 13.933594 59.101562 12.207031 59.101562 12.207031 60.242188 Z M 12.207031 60.242188 "/>
<path style=" stroke:none;fill-rule:nonzero;fill:rgb(28.627452%,7.450981%,32.156864%);fill-opacity:1;" d="M 55.191406 45.550781 C 58.476562 43.960938 60.746094 40.59375 60.746094 36.707031 C 60.746094 28.609375 51.476562 24.050781 45.070312 28.832031 L 45.070312 28.214844 C 45.070312 23.347656 41.289062 19.074219 36.261719 18.675781 C 39.546875 17.085938 41.816406 13.71875 41.816406 9.832031 C 41.816406 4.417969 37.414062 0.0117188 32 0.0117188 C 26.585938 0.0117188 22.183594 4.417969 22.183594 9.832031 C 22.183594 13.71875 24.453125 17.085938 27.738281 18.675781 C 22.722656 19.074219 18.929688 23.296875 18.929688 28.214844 L 18.929688 28.832031 C 12.515625 24.046875 3.25 28.613281 3.25 36.707031 C 3.25 40.59375 5.523438 43.960938 8.808594 45.550781 C 3.886719 45.941406 0 50.066406 0 55.089844 L 0 62.15625 C 0 63.128906 0.792969 63.917969 1.761719 63.917969 L 24.378906 63.917969 C 25.351562 63.917969 26.140625 63.128906 26.140625 62.15625 L 26.140625 55.089844 C 26.140625 50.066406 22.253906 45.941406 17.332031 45.550781 C 20.523438 44.007812 22.753906 40.789062 22.878906 37.046875 L 41.121094 37.046875 C 41.246094 40.789062 43.480469 44.007812 46.667969 45.550781 C 41.746094 45.941406 37.859375 50.070312 37.859375 55.089844 L 37.859375 62.15625 C 37.859375 63.128906 38.652344 63.917969 39.621094 63.917969 L 62.238281 63.917969 C 63.207031 63.917969 64 63.128906 64 62.15625 L 64 55.089844 C 64 50.066406 60.113281 45.941406 55.191406 45.550781 Z M 23.1875 9.832031 C 23.1875 4.972656 27.140625 1.019531 32 1.019531 C 36.859375 1.019531 40.808594 4.972656 40.808594 9.832031 C 40.808594 14.6875 36.859375 18.640625 32 18.640625 C 27.140625 18.640625 23.1875 14.6875 23.1875 9.832031 Z M 35.792969 19.660156 C 32.976562 22.507812 32.910156 23.136719 32 23.136719 C 31.039062 23.136719 30.875 22.324219 28.34375 19.65625 C 28.679688 19.648438 35.246094 19.644531 35.792969 19.660156 Z M 18.121094 46.667969 C 22.105469 47.398438 25.132812 50.894531 25.132812 55.089844 L 25.132812 62.15625 C 25.132812 62.574219 24.792969 62.910156 24.378906 62.910156 L 1.761719 62.910156 C 1.347656 62.910156 1.007812 62.574219 1.007812 62.15625 L 1.007812 55.089844 C 1.007812 50.84375 4.109375 47.316406 8.167969 46.640625 L 11.40625 50.285156 C 11.832031 50.75 12.441406 51.019531 13.070312 51.019531 C 14.667969 51.019531 14.980469 49.761719 18.121094 46.667969 Z M 9.414062 46.527344 C 9.714844 46.523438 16.523438 46.519531 16.867188 46.53125 C 14.082031 49.347656 13.980469 50.011719 13.070312 50.011719 C 12.109375 50.011719 11.9375 49.191406 9.414062 46.527344 Z M 13.070312 45.515625 C 8.210938 45.515625 4.257812 41.5625 4.257812 36.707031 C 4.257812 31.847656 8.210938 27.894531 13.070312 27.894531 C 17.929688 27.894531 21.882812 31.847656 21.882812 36.707031 C 21.882812 41.5625 17.929688 45.515625 13.070312 45.515625 Z M 22.863281 36.039062 C 22.695312 33.5625 21.609375 31.335938 19.9375 29.699219 L 19.9375 28.214844 C 19.9375 24.03125 22.996094 20.445312 27.097656 19.769531 L 30.335938 23.410156 C 31.234375 24.394531 32.777344 24.378906 33.660156 23.414062 L 37.050781 19.792969 C 41.066406 20.53125 44.0625 24.105469 44.0625 28.214844 L 44.0625 29.699219 C 42.390625 31.335938 41.304688 33.5625 41.136719 36.039062 Z M 42.117188 36.707031 C 42.117188 31.847656 46.070312 27.894531 50.929688 27.894531 C 55.789062 27.894531 59.742188 31.847656 59.742188 36.707031 C 59.742188 41.5625 55.789062 45.515625 50.929688 45.515625 C 46.070312 45.515625 42.117188 41.5625 42.117188 36.707031 Z M 54.726562 46.53125 C 51.914062 49.375 51.839844 50.011719 50.929688 50.011719 C 49.976562 50.011719 49.890625 49.289062 47.273438 46.527344 C 47.574219 46.523438 54.382812 46.519531 54.726562 46.53125 Z M 62.992188 62.15625 C 62.992188 62.574219 62.652344 62.910156 62.238281 62.910156 L 39.621094 62.910156 C 39.207031 62.910156 38.867188 62.574219 38.867188 62.15625 L 38.867188 55.089844 C 38.867188 50.84375 41.96875 47.316406 46.023438 46.640625 L 49.265625 50.285156 C 50.167969 51.273438 51.710938 51.25 52.589844 50.289062 L 55.980469 46.667969 C 59.960938 47.402344 62.992188 50.894531 62.992188 55.089844 Z M 62.992188 62.15625 "/>
<path style=" stroke:none;fill-rule:nonzero;fill:rgb(28.627452%,7.450981%,32.156864%);fill-opacity:1;" d="M 50.066406 53.566406 C 50.066406 54.710938 51.792969 54.710938 51.792969 53.566406 C 51.792969 52.425781 50.066406 52.425781 50.066406 53.566406 Z M 50.066406 53.566406 "/>
<path style=" stroke:none;fill-rule:nonzero;fill:rgb(28.627452%,7.450981%,32.156864%);fill-opacity:1;" d="M 50.066406 56.90625 C 50.066406 58.046875 51.792969 58.050781 51.792969 56.90625 C 51.792969 55.765625 50.066406 55.761719 50.066406 56.90625 Z M 50.066406 56.90625 "/>
<path style=" stroke:none;fill-rule:nonzero;fill:rgb(28.627452%,7.450981%,32.156864%);fill-opacity:1;" d="M 50.066406 60.242188 C 50.066406 61.386719 51.792969 61.386719 51.792969 60.242188 C 51.792969 59.101562 50.066406 59.101562 50.066406 60.242188 Z M 50.066406 60.242188 "/>
</g>
</svg>
