<?xml version="1.0" encoding="UTF-8" standalone="no"?>
<svg
   xmlns:dc="http://purl.org/dc/elements/1.1/"
   xmlns:cc="http://creativecommons.org/ns#"
   xmlns:rdf="http://www.w3.org/1999/02/22-rdf-syntax-ns#"
   xmlns:svg="http://www.w3.org/2000/svg"
   xmlns="http://www.w3.org/2000/svg"
   xmlns:sodipodi="http://sodipodi.sourceforge.net/DTD/sodipodi-0.dtd"
   xmlns:inkscape="http://www.inkscape.org/namespaces/inkscape"
   height="508pt"
   viewBox="0 0 508.098 508"
   width="508pt"
   version="1.1"
   id="svg48"
   sodipodi:docname="addlist.svg"
   inkscape:version="0.92.5 (2060ec1f9f, 2020-04-08)">
  <metadata
     id="metadata54">
    <rdf:RDF>
      <cc:Work
         rdf:about="">
        <dc:format>image/svg+xml</dc:format>
        <dc:type
           rdf:resource="http://purl.org/dc/dcmitype/StillImage" />
      </cc:Work>
    </rdf:RDF>
  </metadata>
  <defs
     id="defs52" />
  <sodipodi:namedview
     pagecolor="#ffffff"
     bordercolor="#666666"
     borderopacity="1"
     objecttolerance="10"
     gridtolerance="10"
     guidetolerance="10"
     inkscape:pageopacity="0"
     inkscape:pageshadow="2"
     inkscape:window-width="1920"
     inkscape:window-height="1010"
     id="namedview50"
     showgrid="false"
     inkscape:zoom="0.69685039"
     inkscape:cx="711.33159"
     inkscape:cy="127.72476"
     inkscape:window-x="0"
     inkscape:window-y="0"
     inkscape:window-maximized="1"
     inkscape:current-layer="svg48" />
  <path
     d="m327.988281 77.996094c0 33.898437-22.820312 62.5-53.941406 71.21875-6.359375 1.78125-13.058594 2.738281-20 2.738281-40.839844 0-73.9375-33.117187-73.9375-73.957031s33.097656-73.941406 73.9375-73.941406c6.941406 0 13.640625.960937 20 2.742187 31.121094 8.71875 53.941406 37.296875 53.941406 71.199219zm0 0"
     fill="#edaf85"
     id="path2" />
  <path
     d="m353.808594 223.953125v56.101563c0 5.519531-4.480469 10-10 10h-179.519532c-5.519531 0-10-4.480469-10-10v-56.101563c0-39.777344 32.21875-72 72-72h55.519532c39.78125 0 72 32.222656 72 72zm0 0"
     fill="#1c868e"
     id="path4"
     style="fill:#00b14f;fill-opacity:1" />
  <path
     d="m327.988281 77.996094c0 33.898437-22.820312 62.5-53.941406 71.21875-31.117187-8.71875-53.9375-37.320313-53.9375-71.21875 0-33.902344 22.820313-62.480469 53.9375-71.199219 31.121094 8.71875 53.941406 37.296875 53.941406 71.199219zm0 0"
     fill="#f7c09a"
     id="path6" />
  <path
     d="m353.808594 223.953125v56.101563c0 5.519531-4.480469 10-10 10h-155.519532c-5.519531 0-10-4.480469-10-10v-56.101563c0-39.777344 32.21875-72 72-72h31.519532c39.78125 0 72 32.222656 72 72zm0 0"
     fill="#40c4df"
     id="path8"
     style="fill:#00ea4f;fill-opacity:1" />
  <path
     d="m177.707031 290.644531c0 33.902344-22.820312 62.5-53.941406 71.21875-6.359375 1.78125-13.058594 2.742188-20 2.742188-40.839844 0-73.941406-33.121094-73.941406-73.960938 0-40.839843 33.101562-73.941406 73.941406-73.941406 6.941406 0 13.640625.960937 20 2.742187 31.121094 8.71875 53.941406 37.300782 53.941406 71.199219zm0 0"
     fill="#edaf85"
     id="path10" />
  <path
     d="m203.527344 436.605469v56.097656c0 5.523437-4.480469 10-10 10h-179.519532c-5.523437 0-10-4.476563-10-10v-56.097656c0-39.78125 32.21875-72 72-72h55.519532c39.777344 0 72 32.21875 72 72zm0 0"
     fill="#1c868e"
     id="path12" />
  <path
     d="m177.707031 290.644531c0 33.902344-22.820312 62.5-53.941406 71.21875-31.121094-8.71875-53.941406-37.316406-53.941406-71.21875 0-33.898437 22.820312-62.480469 53.941406-71.199219 31.121094 8.71875 53.941406 37.300782 53.941406 71.199219zm0 0"
     fill="#f7c09a"
     id="path14" />
  <path
     d="m203.527344 436.605469v56.097656c0 5.523437-4.480469 10-10 10h-155.519532c-5.523437 0-10-4.476563-10-10v-56.097656c0-39.78125 32.21875-72 72-72h31.519532c39.777344 0 72 32.21875 72 72zm0 0"
     fill="#40c4df"
     id="path16" />
  <path
     d="m478.269531 290.644531c0 33.902344-22.820312 62.5-53.941406 71.21875-6.359375 1.78125-13.058594 2.742188-20 2.742188-40.839844 0-73.9375-33.121094-73.9375-73.960938 0-40.839843 33.097656-73.941406 73.9375-73.941406 6.941406 0 13.640625.960937 20 2.742187 31.121094 8.71875 53.941406 37.300782 53.941406 71.199219zm0 0"
     fill="#edaf85"
     id="path18" />
  <path
     d="m504.089844 436.605469v56.097656c0 5.523437-4.480469 10-10 10h-179.519532c-5.519531 0-10-4.476563-10-10v-56.097656c0-39.78125 32.21875-72 72-72h55.519532c39.78125 0 72 32.21875 72 72zm0 0"
     fill="#1c868e"
     id="path20"
     style="fill:#d72e2f;fill-opacity:1" />
  <path
     d="m478.269531 290.644531c0 33.902344-22.820312 62.5-53.941406 71.21875-31.117187-8.71875-53.9375-37.316406-53.9375-71.21875 0-33.898437 22.820313-62.480469 53.9375-71.199219 31.121094 8.71875 53.941406 37.300782 53.941406 71.199219zm0 0"
     fill="#f7c09a"
     id="path22" />
  <path
     d="m504.089844 436.605469v56.097656c0 5.523437-4.480469 10-10 10h-155.519532c-5.519531 0-10-4.476563-10-10v-56.097656c0-39.78125 32.21875-72 72-72h31.519532c39.78125 0 72 32.21875 72 72zm0 0"
     fill="#40c4df"
     id="path24"
     style="fill:#ff753b;fill-opacity:1" />
  <g
     fill="#491352"
     id="g46">
    <path
       d="m247.191406 211.867188c0 9.0625 13.710938 9.074218 13.710938 0 0-9.0625-13.710938-9.078126-13.710938 0zm0 0"
       id="path26" />
    <path
       d="m254.046875 231.511719c-9.0625 0-9.074219 13.710937 0 13.710937 9.066406 0 9.078125-13.710937 0-13.710937zm0 0"
       id="path28" />
    <path
       d="m247.191406 264.867188c0 9.066406 13.710938 9.078124 13.710938 0 0-9.0625-13.710938-9.078126-13.710938 0zm0 0"
       id="path30" />
    <path
       d="m96.910156 425.226562c0 9.0625 13.710938 9.078126 13.710938 0 0-9.0625-13.710938-9.078124-13.710938 0zm0 0"
       id="path32" />
    <path
       d="m103.765625 444.871094c-9.0625 0-9.074219 13.710937 0 13.710937 9.0625 0 9.078125-13.710937 0-13.710937zm0 0"
       id="path34" />
    <path
       d="m96.910156 478.226562c0 9.0625 13.710938 9.078126 13.710938 0 0-9.0625-13.710938-9.074218-13.710938 0zm0 0"
       id="path36" />
    <path
       d="m438.164062 361.570312c26.082032-12.621093 44.113282-39.351562 44.113282-70.214843 0-64.285157-73.589844-100.46875-124.46875-62.503907v-4.898437c0-38.640625-30.019532-72.582031-69.917969-75.746094 26.078125-12.621093 44.105469-39.347656 44.105469-70.210937 0-42.980469-34.96875-77.9453128-77.949219-77.9453128-42.984375 0-77.945313 34.9648438-77.945313 77.9453128 0 30.871094 18.039063 57.605468 44.128907 70.222656-39.839844 3.148438-69.941407 36.691406-69.941407 75.734375v4.902344c-50.917968-38-124.472656-1.746094-124.472656 62.5 0 30.867187 18.035156 57.59375 44.113282 70.214843-39.074219 3.105469-69.929688 35.871094-69.929688 75.734376v56.105468c0 7.71875 6.28125 14 14 14h179.535156c7.71875 0 14-6.28125 14-14v-56.105468c0-39.863282-30.855468-72.628907-69.929687-75.734376 25.316406-12.25 43.023437-37.800781 44.042969-67.515624h144.804687c1.015625 29.714843 18.726563 55.265624 44.039063 67.515624-39.074219 3.105469-69.929688 35.875-69.929688 75.734376v56.105468c0 7.71875 6.285156 14 14 14h179.535156c7.71875 0 14-6.28125 14-14v-56.105468c0-39.863282-30.855468-72.628907-69.933594-75.734376zm-254.0625-283.574218c0-38.566406 31.375-69.945313 69.945313-69.945313s69.949219 31.375 69.949219 69.945313c0 38.570312-31.378906 69.949218-69.949219 69.949218s-69.945313-31.378906-69.945313-69.949218zm100.058594 78.046875c-22.359375 22.59375-22.898437 27.59375-30.113281 27.59375-7.621094-.003907-8.925781-6.457031-29.011719-27.640625 2.660156-.046875 54.789063-.101563 59.125.046875zm-140.300781 214.402343c31.628906 5.816407 55.675781 33.574219 55.675781 66.859376v56.105468c0 3.308594-2.691406 6-6 6h-179.535156c-3.308594 0-6-2.691406-6-6v-56.105468c0-33.691407 24.632812-61.722657 56.835938-67.066407l25.722656 28.921875c3.386718 3.707032 8.199218 5.832032 13.207031 5.832032 12.671875 0 15.15625-9.992188 40.09375-34.546876zm-69.121094-1.109374c2.402344-.042969 56.457031-.066407 59.171875.027343-22.113281 22.351563-22.914062 27.628907-30.140625 27.628907-7.632812 0-8.988281-6.511719-29.03125-27.65625zm29.027344-8.03125c-38.570313 0-69.949219-31.378907-69.949219-69.949219 0-38.570313 31.378906-69.945313 69.949219-69.945313s69.949219 31.375 69.949219 69.945313c0 38.570312-31.378906 69.949219-69.949219 69.949219zm77.75-75.25c-1.328125-19.65625-9.96875-37.335938-23.226563-50.332032v-11.769531c0-33.222656 24.289063-61.683594 56.828126-67.066406l25.722656 28.914062c7.132812 7.8125 19.382812 7.699219 26.378906.039063l26.921875-28.75c31.875 5.859375 55.664063 34.234375 55.664063 66.867187v11.769531c-13.257813 12.996094-21.894532 30.671876-23.226563 50.332032h-145.0625zm152.867187 5.300781c0-38.570313 31.378907-69.945313 69.945313-69.945313 38.570313 0 69.953125 31.375 69.953125 69.945313 0 38.570312-31.378906 69.949219-69.953125 69.949219-38.566406 0-69.945313-31.378907-69.945313-69.949219zm100.089844 78.007812c-22.339844 22.578125-22.929687 27.628907-30.144531 27.628907-7.574219 0-8.234375-5.726563-29.027344-27.65625 2.386719-.042969 56.453125-.066407 59.171875.027343zm65.625 124.046875c0 3.308594-2.695312 6-6 6h-179.535156c-3.308594 0-6-2.691406-6-6v-56.105468c0-33.691407 24.632812-61.722657 56.832031-67.066407l25.726563 28.921875c7.175781 7.863282 19.414062 7.667969 26.378906.035156l26.921875-28.75c31.625 5.820313 55.671875 33.574219 55.671875 66.863282v56.101562zm0 0"
       id="path38" />
    <path
       d="m397.472656 425.226562c0 9.0625 13.710938 9.078126 13.710938 0 .003906-9.0625-13.710938-9.078124-13.710938 0zm0 0"
       id="path40" />
    <path
       d="m397.472656 451.726562c0 9.0625 13.710938 9.078126 13.710938 0 .003906-9.0625-13.710938-9.074218-13.710938 0zm0 0"
       id="path42" />
    <path
       d="m397.472656 478.226562c0 9.0625 13.710938 9.078126 13.710938 0 .003906-9.0625-13.710938-9.074218-13.710938 0zm0 0"
       id="path44" />
  </g>
</svg>
