<?xml version="1.0" encoding="UTF-8" standalone="no"?>
<!-- Generator: Adobe Illustrator 19.0.0, SVG Export Plug-In . SVG Version: 6.00 Build 0)  -->

<svg
   xmlns:dc="http://purl.org/dc/elements/1.1/"
   xmlns:cc="http://creativecommons.org/ns#"
   xmlns:rdf="http://www.w3.org/1999/02/22-rdf-syntax-ns#"
   xmlns:svg="http://www.w3.org/2000/svg"
   xmlns="http://www.w3.org/2000/svg"
   xmlns:sodipodi="http://sodipodi.sourceforge.net/DTD/sodipodi-0.dtd"
   xmlns:inkscape="http://www.inkscape.org/namespaces/inkscape"
   version="1.1"
   id="Capa_1"
   x="0px"
   y="0px"
   viewBox="0 0 512 512"
   xml:space="preserve"
   sodipodi:docname="archive.svg"
   width="512"
   height="512"
   inkscape:version="0.92.5 (2060ec1f9f, 2020-04-08)"><metadata
   id="metadata85"><rdf:RDF><cc:Work
       rdf:about=""><dc:format>image/svg+xml</dc:format><dc:type
         rdf:resource="http://purl.org/dc/dcmitype/StillImage" /><dc:title></dc:title></cc:Work></rdf:RDF></metadata><defs
   id="defs83" /><sodipodi:namedview
   pagecolor="#ffffff"
   bordercolor="#666666"
   borderopacity="1"
   objecttolerance="10"
   gridtolerance="10"
   guidetolerance="10"
   inkscape:pageopacity="0"
   inkscape:pageshadow="2"
   inkscape:window-width="1686"
   inkscape:window-height="892"
   id="namedview81"
   showgrid="false"
   inkscape:zoom="0.50395799"
   inkscape:cx="238.11508"
   inkscape:cy="234.1465"
   inkscape:window-x="0"
   inkscape:window-y="0"
   inkscape:window-maximized="0"
   inkscape:current-layer="Capa_1" />
<path
   style="fill:#fcd462;stroke-width:1.13784838"
   d="M 120.81781,511 H 28.253741 C 13.201767,511 1,497.73261 1,481.36611 V 40.900295 C 1,24.533794 13.201767,11.266415 28.253741,11.266415 h 92.564069 c 15.05198,0 27.25375,13.267379 27.25375,29.63388 V 481.3673 C 148.07056,497.73261 135.8687,511 120.81781,511 Z"
   id="path2"
   inkscape:connector-curvature="0" />
<path
   style="fill:#ebf0f3;stroke-width:1.13784838"
   d="M 31.639726,191.24929 V 59.396553 c 0,-8.183251 6.100883,-14.816941 13.62687,-14.816941 h 58.538364 c 7.52599,0 13.62687,6.63369 13.62687,14.816941 V 191.24929 c 0,8.18324 -6.10088,14.81694 -13.62687,14.81694 H 45.266596 c -7.525987,0 -13.62687,-6.6337 -13.62687,-14.81694 z"
   id="path4"
   inkscape:connector-curvature="0" />
<path
   style="fill:#64798a;stroke-width:1.13784838"
   d="m 93.927443,476.31639 h -38.78333 c -11.288435,0 -20.440306,-9.94994 -20.440306,-22.22541 V 411.9206 c 0,-12.27428 9.15078,-22.22541 20.440306,-22.22541 h 38.78333 c 11.288437,0 20.440307,9.94995 20.440307,22.22541 v 42.17038 c -0.001,12.27429 -9.15187,22.22541 -20.440307,22.22541 z"
   id="path6"
   inkscape:connector-curvature="0" />
<path
   style="fill:#3a556a;stroke-width:1.13784838"
   d="M 105.2257,467.16971 H 62.329646 c -10.15359,0 -18.383399,-8.94854 -18.383399,-19.98887 v -46.64228 c 0,-3.3993 0.853317,-6.55182 2.230407,-9.35432 -6.722865,2.97336 -11.472847,10.12318 -11.472847,18.50101 v 46.64227 c 0,11.04033 8.230901,19.98887 18.383399,19.98887 h 42.896052 c 7.027312,0 13.059452,-4.33544 16.152992,-10.63455 -2.13656,0.94445 -4.463,1.48787 -6.91055,1.48787 z"
   id="path8"
   inkscape:connector-curvature="0" />
<g
   id="g16"
   transform="matrix(1.0911972,0,0,1.1864943,1,-22.313745)">
	<rect
   x="44.924999"
   y="116.012"
   style="fill:#64798a"
   width="44.924999"
   height="16.846001"
   id="rect10" />
	<rect
   x="44.924999"
   y="82.313004"
   style="fill:#64798a"
   width="44.924999"
   height="16.846001"
   id="rect12" />
	<rect
   x="44.924999"
   y="149.70399"
   style="fill:#64798a"
   width="44.924999"
   height="16.846001"
   id="rect14" />
</g>
<path
   style="fill:#44c4a1;stroke-width:1.13784838"
   d="m 484.74626,511 h -92.56407 c -15.05198,0 -27.25375,-13.26739 -27.25375,-29.63389 V 40.900295 c 0,-16.366501 12.20177,-29.63388 27.25375,-29.63388 h 92.56407 C 499.79823,11.266415 512,24.533794 512,40.900295 V 481.3673 C 512,497.73261 499.79823,511 484.74626,511 Z"
   id="path18"
   inkscape:connector-curvature="0" />
<path
   style="fill:#ebf0f3;stroke-width:1.13784838"
   d="M 395.56817,191.24929 V 59.396553 c 0,-8.183251 6.10088,-14.816941 13.62687,-14.816941 h 58.53836 c 7.52599,0 13.62687,6.63369 13.62687,14.816941 V 191.24929 c 0,8.18324 -6.10088,14.81694 -13.62687,14.81694 h -58.53836 c -7.52599,0 -13.62687,-6.6337 -13.62687,-14.81694 z"
   id="path20"
   inkscape:connector-curvature="0" />
<path
   style="fill:#64798a;stroke-width:1.13784838"
   d="m 457.85589,476.31639 h -38.78333 c -11.28844,0 -20.44031,-9.94994 -20.44031,-22.22541 V 411.9206 c 0,-12.27428 9.15078,-22.22541 20.44031,-22.22541 h 38.78333 c 11.28843,0 20.4403,9.94995 20.4403,22.22541 v 42.17038 c 0,12.27429 -9.15187,22.22541 -20.4403,22.22541 z"
   id="path22"
   inkscape:connector-curvature="0" />
<path
   style="fill:#3a556a;stroke-width:1.13784838"
   d="m 469.15414,467.16971 h -42.89605 c -10.15359,0 -18.3834,-8.94854 -18.3834,-19.98887 v -46.64228 c 0,-3.3993 0.85332,-6.55182 2.23041,-9.35432 -6.72287,2.97336 -11.47285,10.12318 -11.47285,18.50101 v 46.64227 c 0,11.04033 8.2309,19.98887 18.3834,19.98887 h 42.89605 c 7.02731,0 13.05945,-4.33544 16.15299,-10.63455 -2.13547,0.94445 -4.4619,1.48787 -6.91055,1.48787 z"
   id="path24"
   inkscape:connector-curvature="0" />
<g
   id="g32"
   transform="matrix(1.0911972,0,0,1.1864943,1,-22.313745)">
	<rect
   x="378.44299"
   y="116.012"
   style="fill:#64798a"
   width="44.924999"
   height="16.846001"
   id="rect26" />
	<rect
   x="378.44299"
   y="82.313004"
   style="fill:#64798a"
   width="44.924999"
   height="16.846001"
   id="rect28" />
	<rect
   x="378.44299"
   y="149.70399"
   style="fill:#64798a"
   width="44.924999"
   height="16.846001"
   id="rect30" />
</g>
<path
   style="fill:#e56353;stroke-width:1.13784838"
   d="m 262.18787,510.07334 -91.15753,-17.47706 c -14.82282,-2.84165 -24.71998,-18.2115 -22.10656,-34.32884 L 219.26672,24.492266 C 221.88013,8.374929 236.0155,-2.386574 250.83832,0.45508 l 91.15752,17.47706 c 14.82283,2.841653 24.71999,18.211499 22.10657,34.328837 L 293.75947,486.03616 c -2.61341,16.11733 -16.74878,26.87884 -31.5716,24.03718 z"
   id="path34"
   inkscape:connector-curvature="0" />
<path
   style="fill:#ebf0f3;stroke-width:1.13784838"
   d="M 225.4298,178.3426 246.48663,48.492671 c 1.30725,-8.058668 8.37494,-13.43942 15.78635,-12.019186 l 57.64904,11.052193 c 7.41141,1.42142 12.35999,9.106343 11.05382,17.165015 L 309.91901,194.54062 c -1.30725,8.05867 -8.37494,13.43942 -15.78635,12.01918 l -57.64904,-11.05219 c -7.4125,-1.42142 -12.36108,-9.10634 -11.05382,-17.16501 z"
   id="path36"
   inkscape:connector-curvature="0" />
<path
   style="fill:#64798a;stroke-width:1.13784838"
   d="m 241.24561,470.83835 -38.19408,-7.32305 c -11.11712,-2.13094 -18.54054,-13.65892 -16.57965,-25.74692 l 6.73486,-41.52967 c 1.95979,-12.08801 12.56187,-20.15972 23.67898,-18.0276 l 38.19409,7.32305 c 11.11711,2.13094 18.54053,13.65892 16.57965,25.74692 l -6.73487,41.52967 c -1.96088,12.08801 -12.56186,20.15972 -23.67898,18.0276 z"
   id="path38"
   inkscape:connector-curvature="0" />
<path
   style="fill:#3a556a;stroke-width:1.13784838"
   d="m 253.83257,463.96499 -42.24352,-8.09902 c -9.99864,-1.91737 -16.67567,-12.28377 -14.9123,-23.1568 l 7.44851,-45.93276 c 0.54342,-3.34828 1.88668,-6.29078 3.69043,-8.79073 -7.09496,1.65872 -12.91541,7.80358 -14.25322,16.05327 l -7.44851,45.93275 c -1.76337,10.87185 4.91366,21.23944 14.9123,23.15681 l 42.24352,8.099 c 6.92037,1.3265 13.55376,-1.80346 17.60647,-7.42389 -2.25551,0.528 -4.63323,0.62291 -7.04368,0.16137 z"
   id="path40"
   inkscape:connector-curvature="0" />
<g
   id="g48"
   transform="matrix(1.0911972,0,0,1.1864943,1,-22.313745)">
	
		<rect
   x="245.61099"
   y="98.764999"
   transform="matrix(-0.1736,0.9848,-0.9848,-0.1736,417.5324,-107.8966)"
   style="fill:#64798a"
   width="16.846001"
   height="44.924999"
   id="rect42" />
	
		<rect
   x="251.446"
   y="65.578003"
   transform="matrix(-0.1736,0.9848,-0.9848,-0.1736,391.6978,-152.5924)"
   style="fill:#64798a"
   width="16.846001"
   height="44.924999"
   id="rect44" />
	
		<rect
   x="239.76401"
   y="131.94299"
   transform="matrix(-0.1736,0.9848,-0.9848,-0.1736,443.3442,-63.1987)"
   style="fill:#64798a"
   width="16.846001"
   height="44.924999"
   id="rect46" />
</g>
<g
   id="g50"
   transform="matrix(1.0911972,0,0,1.1864943,1,-22.313745)">
</g>
<g
   id="g52"
   transform="matrix(1.0911972,0,0,1.1864943,1,-22.313745)">
</g>
<g
   id="g54"
   transform="matrix(1.0911972,0,0,1.1864943,1,-22.313745)">
</g>
<g
   id="g56"
   transform="matrix(1.0911972,0,0,1.1864943,1,-22.313745)">
</g>
<g
   id="g58"
   transform="matrix(1.0911972,0,0,1.1864943,1,-22.313745)">
</g>
<g
   id="g60"
   transform="matrix(1.0911972,0,0,1.1864943,1,-22.313745)">
</g>
<g
   id="g62"
   transform="matrix(1.0911972,0,0,1.1864943,1,-22.313745)">
</g>
<g
   id="g64"
   transform="matrix(1.0911972,0,0,1.1864943,1,-22.313745)">
</g>
<g
   id="g66"
   transform="matrix(1.0911972,0,0,1.1864943,1,-22.313745)">
</g>
<g
   id="g68"
   transform="matrix(1.0911972,0,0,1.1864943,1,-22.313745)">
</g>
<g
   id="g70"
   transform="matrix(1.0911972,0,0,1.1864943,1,-22.313745)">
</g>
<g
   id="g72"
   transform="matrix(1.0911972,0,0,1.1864943,1,-22.313745)">
</g>
<g
   id="g74"
   transform="matrix(1.0911972,0,0,1.1864943,1,-22.313745)">
</g>
<g
   id="g76"
   transform="matrix(1.0911972,0,0,1.1864943,1,-22.313745)">
</g>
<g
   id="g78"
   transform="matrix(1.0911972,0,0,1.1864943,1,-22.313745)">
</g>
</svg>