<!-- Generator: Adobe Illustrator 19.0.0, SVG Export Plug-In . SVG Version: 6.00 Build 0)  -->
<svg xmlns="http://www.w3.org/2000/svg" xmlns:xlink="http://www.w3.org/1999/xlink" width="64px" height="64px" viewBox="0 0 64 64" version="1.1">
<g id="surface1">
<path style=" stroke:none;fill-rule:nonzero;fill:rgb(98.823529%,83.137256%,38.431373%);fill-opacity:1;" d="M 15.101562 63.875 L 3.53125 63.875 C 1.648438 63.875 0.125 62.214844 0.125 60.171875 L 0.125 5.113281 C 0.125 3.066406 1.648438 1.410156 3.53125 1.410156 L 15.101562 1.410156 C 16.984375 1.410156 18.507812 3.066406 18.507812 5.113281 L 18.507812 60.171875 C 18.507812 62.214844 16.984375 63.875 15.101562 63.875 Z M 15.101562 63.875 "/>
<path style=" stroke:none;fill-rule:nonzero;fill:rgb(92.156863%,94.117647%,95.294118%);fill-opacity:1;" d="M 3.953125 23.90625 L 3.953125 7.425781 C 3.953125 6.402344 4.71875 5.574219 5.660156 5.574219 L 12.976562 5.574219 C 13.917969 5.574219 14.679688 6.402344 14.679688 7.425781 L 14.679688 23.90625 C 14.679688 24.929688 13.917969 25.757812 12.976562 25.757812 L 5.660156 25.757812 C 4.71875 25.757812 3.953125 24.929688 3.953125 23.90625 Z M 3.953125 23.90625 "/>
<path style=" stroke:none;fill-rule:nonzero;fill:rgb(39.215687%,47.450981%,54.11765%);fill-opacity:1;" d="M 11.742188 59.539062 L 6.894531 59.539062 C 5.480469 59.539062 4.339844 58.296875 4.339844 56.761719 L 4.339844 51.488281 C 4.339844 49.957031 5.480469 48.710938 6.894531 48.710938 L 11.742188 48.710938 C 13.152344 48.710938 14.296875 49.957031 14.296875 51.488281 L 14.296875 56.761719 C 14.296875 58.296875 13.152344 59.539062 11.742188 59.539062 Z M 11.742188 59.539062 "/>
<path style=" stroke:none;fill-rule:nonzero;fill:rgb(22.745098%,33.333334%,41.568628%);fill-opacity:1;" d="M 13.152344 58.394531 L 7.792969 58.394531 C 6.523438 58.394531 5.492188 57.277344 5.492188 55.898438 L 5.492188 50.066406 C 5.492188 49.640625 5.601562 49.25 5.773438 48.898438 C 4.933594 49.269531 4.339844 50.164062 4.339844 51.210938 L 4.339844 57.039062 C 4.339844 58.421875 5.367188 59.539062 6.636719 59.539062 L 11.996094 59.539062 C 12.875 59.539062 13.628906 58.996094 14.015625 58.210938 C 13.75 58.328125 13.460938 58.394531 13.152344 58.394531 Z M 13.152344 58.394531 "/>
<path style=" stroke:none;fill-rule:nonzero;fill:rgb(39.215687%,47.450981%,54.11765%);fill-opacity:1;" d="M 6.253906 14.417969 L 12.378906 14.417969 L 12.378906 16.914062 L 6.253906 16.914062 Z M 6.253906 14.417969 "/>
<path style=" stroke:none;fill-rule:nonzero;fill:rgb(39.215687%,47.450981%,54.11765%);fill-opacity:1;" d="M 6.253906 9.417969 L 12.378906 9.417969 L 12.378906 11.917969 L 6.253906 11.917969 Z M 6.253906 9.417969 "/>
<path style=" stroke:none;fill-rule:nonzero;fill:rgb(39.215687%,47.450981%,54.11765%);fill-opacity:1;" d="M 6.253906 19.414062 L 12.378906 19.414062 L 12.378906 21.914062 L 6.253906 21.914062 Z M 6.253906 19.414062 "/>
<path style=" stroke:none;fill-rule:nonzero;fill:rgb(26.666668%,76.862746%,63.137257%);fill-opacity:1;" d="M 60.59375 63.875 L 49.023438 63.875 C 47.140625 63.875 45.617188 62.214844 45.617188 60.171875 L 45.617188 5.113281 C 45.617188 3.066406 47.140625 1.410156 49.023438 1.410156 L 60.59375 1.410156 C 62.476562 1.410156 64 3.066406 64 5.113281 L 64 60.171875 C 64 62.214844 62.476562 63.875 60.59375 63.875 Z M 60.59375 63.875 "/>
<path style=" stroke:none;fill-rule:nonzero;fill:rgb(92.156863%,94.117647%,95.294118%);fill-opacity:1;" d="M 49.445312 23.90625 L 49.445312 7.425781 C 49.445312 6.402344 50.207031 5.574219 51.148438 5.574219 L 58.464844 5.574219 C 59.40625 5.574219 60.171875 6.402344 60.171875 7.425781 L 60.171875 23.90625 C 60.171875 24.929688 59.40625 25.757812 58.464844 25.757812 L 51.148438 25.757812 C 50.207031 25.757812 49.445312 24.929688 49.445312 23.90625 Z M 49.445312 23.90625 "/>
<path style=" stroke:none;fill-rule:nonzero;fill:rgb(39.215687%,47.450981%,54.11765%);fill-opacity:1;" d="M 57.230469 59.539062 L 52.382812 59.539062 C 50.972656 59.539062 49.828125 58.296875 49.828125 56.761719 L 49.828125 51.488281 C 49.828125 49.957031 50.972656 48.710938 52.382812 48.710938 L 57.230469 48.710938 C 58.644531 48.710938 59.785156 49.957031 59.785156 51.488281 L 59.785156 56.761719 C 59.785156 58.296875 58.644531 59.539062 57.230469 59.539062 Z M 57.230469 59.539062 "/>
<path style=" stroke:none;fill-rule:nonzero;fill:rgb(22.745098%,33.333334%,41.568628%);fill-opacity:1;" d="M 58.644531 58.394531 L 53.28125 58.394531 C 52.011719 58.394531 50.984375 57.277344 50.984375 55.898438 L 50.984375 50.066406 C 50.984375 49.640625 51.089844 49.25 51.261719 48.898438 C 50.421875 49.269531 49.828125 50.164062 49.828125 51.210938 L 49.828125 57.039062 C 49.828125 58.421875 50.859375 59.539062 52.128906 59.539062 L 57.488281 59.539062 C 58.367188 59.539062 59.121094 58.996094 59.507812 58.210938 C 59.242188 58.328125 58.949219 58.394531 58.644531 58.394531 Z M 58.644531 58.394531 "/>
<path style=" stroke:none;fill-rule:nonzero;fill:rgb(39.215687%,47.450981%,54.11765%);fill-opacity:1;" d="M 51.746094 14.417969 L 57.871094 14.417969 L 57.871094 16.914062 L 51.746094 16.914062 Z M 51.746094 14.417969 "/>
<path style=" stroke:none;fill-rule:nonzero;fill:rgb(39.215687%,47.450981%,54.11765%);fill-opacity:1;" d="M 51.746094 9.417969 L 57.871094 9.417969 L 57.871094 11.917969 L 51.746094 11.917969 Z M 51.746094 9.417969 "/>
<path style=" stroke:none;fill-rule:nonzero;fill:rgb(39.215687%,47.450981%,54.11765%);fill-opacity:1;" d="M 51.746094 19.414062 L 57.871094 19.414062 L 57.871094 21.914062 L 51.746094 21.914062 Z M 51.746094 19.414062 "/>
<path style=" stroke:none;fill-rule:nonzero;fill:rgb(89.803922%,38.82353%,32.549021%);fill-opacity:1;" d="M 32.773438 63.757812 L 21.378906 61.574219 C 19.527344 61.21875 18.289062 59.296875 18.617188 57.285156 L 27.410156 3.0625 C 27.734375 1.046875 29.5 -0.296875 31.355469 0.0585938 L 42.75 2.242188 C 44.601562 2.597656 45.839844 4.519531 45.511719 6.53125 L 36.71875 60.753906 C 36.394531 62.769531 34.625 64.113281 32.773438 63.757812 Z M 32.773438 63.757812 "/>
<path style=" stroke:none;fill-rule:nonzero;fill:rgb(92.156863%,94.117647%,95.294118%);fill-opacity:1;" d="M 28.179688 22.292969 L 30.8125 6.0625 C 30.972656 5.054688 31.859375 4.382812 32.785156 4.558594 L 39.992188 5.941406 C 40.917969 6.117188 41.535156 7.078125 41.371094 8.085938 L 38.738281 24.316406 C 38.578125 25.324219 37.691406 25.996094 36.765625 25.820312 L 29.558594 24.4375 C 28.632812 24.261719 28.015625 23.300781 28.179688 22.292969 Z M 28.179688 22.292969 "/>
<path style=" stroke:none;fill-rule:nonzero;fill:rgb(39.215687%,47.450981%,54.11765%);fill-opacity:1;" d="M 30.15625 58.855469 L 25.382812 57.9375 C 23.992188 57.671875 23.0625 56.230469 23.308594 54.722656 L 24.152344 49.53125 C 24.394531 48.019531 25.722656 47.011719 27.109375 47.277344 L 31.886719 48.191406 C 33.273438 48.457031 34.203125 49.898438 33.957031 51.410156 L 33.117188 56.601562 C 32.871094 58.113281 31.546875 59.121094 30.15625 58.855469 Z M 30.15625 58.855469 "/>
<path style=" stroke:none;fill-rule:nonzero;fill:rgb(22.745098%,33.333334%,41.568628%);fill-opacity:1;" d="M 31.730469 57.996094 L 26.449219 56.984375 C 25.199219 56.742188 24.363281 55.449219 24.585938 54.089844 L 25.515625 48.347656 C 25.582031 47.929688 25.75 47.5625 25.976562 47.25 C 25.089844 47.457031 24.363281 48.222656 24.195312 49.253906 L 23.265625 54.996094 C 23.042969 56.355469 23.878906 57.652344 25.128906 57.890625 L 30.410156 58.902344 C 31.273438 59.070312 32.101562 58.679688 32.609375 57.976562 C 32.328125 58.042969 32.03125 58.054688 31.730469 57.996094 Z M 31.730469 57.996094 "/>
<path style=" stroke:none;fill-rule:nonzero;fill:rgb(39.215687%,47.450981%,54.11765%);fill-opacity:1;" d="M 37.992188 14.539062 L 37.59375 17 L 31.558594 15.84375 L 31.960938 13.382812 Z M 37.992188 14.539062 "/>
<path style=" stroke:none;fill-rule:nonzero;fill:rgb(39.215687%,47.450981%,54.11765%);fill-opacity:1;" d="M 38.789062 9.617188 L 38.390625 12.078125 L 32.355469 10.921875 L 32.753906 8.460938 Z M 38.789062 9.617188 "/>
<path style=" stroke:none;fill-rule:nonzero;fill:rgb(39.215687%,47.450981%,54.11765%);fill-opacity:1;" d="M 37.195312 19.460938 L 36.796875 21.921875 L 30.761719 20.761719 L 31.160156 18.304688 Z M 37.195312 19.460938 "/>
</g>
</svg>
