<!-- Generator: Adobe Illustrator 19.0.0, SVG Export Plug-In . SVG Version: 6.00 Build 0)  -->
<svg xmlns="http://www.w3.org/2000/svg" xmlns:xlink="http://www.w3.org/1999/xlink" width="64px" height="64px" viewBox="0 0 64 64" version="1.1">
<g id="surface1">
<path style=" stroke:none;fill-rule:nonzero;fill:rgb(100%,74.117649%,31.764707%);fill-opacity:1;" d="M 61.878906 11.453125 C 62.386719 11.949219 62.671875 12.625 62.667969 13.332031 L 62.667969 50.667969 C 62.671875 51.375 62.386719 52.050781 61.878906 52.546875 L 38.773438 29.441406 L 61.332031 12 Z M 61.878906 11.453125 "/>
<path style=" stroke:none;fill-rule:nonzero;fill:rgb(100%,74.117649%,31.764707%);fill-opacity:1;" d="M 8 46.667969 L 2.132812 52.53125 L 2.121094 52.546875 C 1.613281 52.050781 1.328125 51.375 1.332031 50.667969 L 1.332031 13.332031 C 1.332031 12.800781 1.488281 12.28125 1.785156 11.839844 L 2.667969 12 L 25.226562 29.441406 Z M 8 46.667969 "/>
<path style=" stroke:none;fill-rule:nonzero;fill:rgb(100%,89.411765%,31.764707%);fill-opacity:1;" d="M 2.132812 52.535156 L 25.226562 29.441406 L 32 34.667969 L 38.773438 29.441406 L 61.878906 52.546875 C 61.386719 53.054688 60.707031 53.335938 60 53.332031 L 4 53.332031 C 3.292969 53.335938 2.613281 53.054688 2.121094 52.546875 Z M 2.132812 52.535156 "/>
<path style=" stroke:none;fill-rule:nonzero;fill:rgb(100%,89.411765%,31.764707%);fill-opacity:1;" d="M 60 10.667969 C 60.707031 10.664062 61.386719 10.945312 61.878906 11.453125 L 61.332031 12 L 38.773438 29.441406 L 32 34.667969 L 25.226562 29.441406 L 2.667969 12 L 1.785156 11.839844 C 2.285156 11.105469 3.113281 10.667969 4 10.667969 Z M 60 10.667969 "/>
<path style=" stroke:none;fill-rule:nonzero;fill:rgb(29.803923%,35.686275%,40.000001%);fill-opacity:1;" d="M 62.835938 10.523438 C 62.089844 9.757812 61.066406 9.328125 60 9.332031 L 4 9.332031 C 2.671875 9.332031 1.429688 9.988281 0.683594 11.089844 C 0.234375 11.75 -0.00390625 12.53125 0 13.332031 L 0 50.667969 C -0.0078125 51.722656 0.414062 52.738281 1.164062 53.476562 C 1.910156 54.242188 2.933594 54.671875 4 54.667969 L 60 54.667969 C 62.203125 54.652344 63.988281 52.871094 64 50.667969 L 64 13.332031 C 64.007812 12.277344 63.585938 11.261719 62.835938 10.523438 Z M 32 32.984375 L 4.847656 12 L 59.152344 12 Z M 60.925781 51.617188 C 60.683594 51.863281 60.347656 52.003906 60 52 L 4 52 C 3.640625 52 3.296875 51.851562 3.050781 51.59375 C 2.800781 51.347656 2.664062 51.015625 2.667969 50.667969 L 2.667969 13.683594 L 23.21875 29.5625 L 7.058594 45.722656 L 8.941406 47.609375 L 25.34375 31.210938 L 31.183594 35.722656 C 31.664062 36.09375 32.332031 36.09375 32.8125 35.722656 L 38.65625 31.210938 L 55.054688 47.609375 L 56.941406 45.722656 L 40.78125 29.5625 L 61.332031 13.683594 L 61.332031 50.667969 C 61.332031 51.027344 61.1875 51.371094 60.925781 51.617188 Z M 60.925781 51.617188 "/>
<path style="fill-rule:evenodd;fill:rgb(14.117648%,12.156863%,10.980392%);fill-opacity:1;stroke-width:0.46022;stroke-linecap:butt;stroke-linejoin:miter;stroke:rgb(0%,0%,0%);stroke-opacity:1;stroke-miterlimit:4;" d="M 18.718824 433.501705 C 11.968797 429.939191 7.312529 425.282923 3.968766 418.814148 C 1.125004 413.251626 1.062504 408.189106 1.437506 254.407251 L 1.843757 95.750377 L 6.437525 89.219101 C 8.968785 85.625337 14.093805 81.062819 17.81257 79.125311 L 24.562597 75.531547 L 255.251004 75.531547 C 509.845756 75.531547 491.720684 74.844044 502.376976 85.156585 C 512.220765 94.687872 511.939514 89.500352 511.939514 255.782256 C 511.939514 424.970422 512.408266 417.282892 501.095721 427.501682 C 497.689458 430.595444 493.15819 433.782956 491.033182 434.59546 C 488.658172 435.501713 399.09532 436.032965 255.251004 436.001715 C 46.812684 435.939215 22.84384 435.689214 18.718824 433.501705 Z M 488.283171 412.876624 C 491.126932 409.751612 491.220682 404.689092 491.626934 259.469771 C 491.845685 176.875696 491.501934 109.31293 490.876931 109.31293 C 489.845677 109.34418 331.095052 231.43841 327.126287 235.250925 C 326.157533 236.157179 349.188874 260.282274 390.001534 301.094934 L 454.376787 365.470188 L 439.81423 380.032745 L 374.251472 314.594988 L 308.657464 249.15723 L 284.219868 268.188555 C 268.532306 280.407353 258.469767 287.25113 256.126008 287.25113 C 253.782248 287.25113 243.469708 280.313603 227.625895 268.094805 L 202.813298 248.938479 L 137.25054 314.501237 L 71.656532 380.032745 L 57.093975 365.470188 L 121.125476 301.407436 C 156.344365 266.188547 185.156978 236.907182 185.156978 236.34468 C 185.156978 235.438426 28.187611 113.469196 22.93759 110.281684 C 21.406334 109.34418 21.031333 139.594299 21.031333 259.532271 C 21.031333 407.939105 21.062583 410.001613 24.093845 413.032875 C 27.125107 416.064137 29.218865 416.095387 256.251008 416.095387 L 485.376909 416.095387 Z M 363.938932 181.406964 C 422.126661 136.500537 470.751852 98.781639 471.970607 97.625384 C 473.908114 95.812877 442.34549 95.500376 256.84476 95.500376 C 137.25054 95.500376 39.468905 96.000378 39.531406 96.62538 C 39.687656 98.594138 254.876003 264.094789 256.563509 263.563537 C 257.438513 263.282286 305.782453 226.31339 363.938932 181.406964 Z M 363.938932 181.406964 " transform="matrix(0.125,0,0,0.125,0,0)"/>
</g>
</svg>
