<?xml version="1.0" encoding="UTF-8" standalone="no"?>
<!-- Generator: Adobe Illustrator 19.0.0, SVG Export Plug-In . SVG Version: 6.00 Build 0)  -->

<svg
   xmlns:dc="http://purl.org/dc/elements/1.1/"
   xmlns:cc="http://creativecommons.org/ns#"
   xmlns:rdf="http://www.w3.org/1999/02/22-rdf-syntax-ns#"
   xmlns:svg="http://www.w3.org/2000/svg"
   xmlns="http://www.w3.org/2000/svg"
   xmlns:sodipodi="http://sodipodi.sourceforge.net/DTD/sodipodi-0.dtd"
   xmlns:inkscape="http://www.inkscape.org/namespaces/inkscape"
   version="1.1"
   id="Capa_1"
   x="0px"
   y="0px"
   viewBox="0 0 512.002 512.002"
   style="enable-background:new 0 0 512.002 512.002;"
   xml:space="preserve"
   sodipodi:docname="email.svg"
   inkscape:version="0.92.3 (2405546, 2018-03-11)"><metadata
   id="metadata51"><rdf:RDF><cc:Work
       rdf:about=""><dc:format>image/svg+xml</dc:format><dc:type
         rdf:resource="http://purl.org/dc/dcmitype/StillImage" /></cc:Work></rdf:RDF></metadata><defs
   id="defs49" /><sodipodi:namedview
   pagecolor="#ffffff"
   bordercolor="#666666"
   borderopacity="1"
   objecttolerance="10"
   gridtolerance="10"
   guidetolerance="10"
   inkscape:pageopacity="0"
   inkscape:pageshadow="2"
   inkscape:window-width="1565"
   inkscape:window-height="716"
   id="namedview47"
   showgrid="false"
   inkscape:zoom="0.6518615"
   inkscape:cx="260.64532"
   inkscape:cy="194.38282"
   inkscape:window-x="0"
   inkscape:window-y="0"
   inkscape:window-maximized="0"
   inkscape:current-layer="Capa_1" />
<g
   id="g6">
	<path
   style="fill:#FFBD51;"
   d="M495.041,91.628c4.052,3.952,6.323,9.38,6.293,15.04v298.667c0.03,5.66-2.241,11.088-6.293,15.04   l-47.04-47.04L310.188,235.521l180.48-139.52L495.041,91.628z"
   id="path2" />
	<path
   style="fill:#FFBD51;"
   d="M64.001,373.334l-46.933,46.933l-0.107,0.107c-4.052-3.952-6.323-9.38-6.293-15.04V106.668   c-0.027-4.257,1.238-8.423,3.627-11.947l7.04,1.28l180.48,139.52L64.001,373.334z"
   id="path4" />
</g>
<g
   id="g12">
	<path
   style="fill:#FFE451;"
   d="M17.068,420.268l46.933-46.933l137.813-137.813l54.187,41.813l54.187-41.813l137.813,137.813   l47.04,47.04c-3.952,4.052-9.38,6.323-15.04,6.293h-448c-5.66,0.03-11.088-2.241-15.04-6.293L17.068,420.268z"
   id="path8" />
	<path
   style="fill:#FFE451;"
   d="M480.001,85.334c5.66-0.03,11.088,2.242,15.04,6.293l-4.373,4.373l-180.48,139.52l-54.187,41.813   l-54.187-41.813L21.334,96.001l-7.04-1.28c3.98-5.872,10.613-9.388,17.707-9.387H480.001z"
   id="path10" />
</g>
<path
   style="fill:#4C5B66;"
   d="M502.678,84.182c-5.951-6.123-14.139-9.558-22.677-9.515h-448  c-10.623-0.009-20.558,5.254-26.517,14.048c-3.602,5.291-5.514,11.551-5.483,17.952v298.667c-0.069,8.449,3.296,16.564,9.323,22.485  c5.951,6.123,14.139,9.558,22.677,9.515h448c17.632-0.099,31.901-14.368,32-32V106.668C512.07,98.219,508.705,90.104,502.678,84.182  z M256.001,263.862L38.774,96.001h434.453L256.001,263.862z M487.404,412.929c-1.946,1.99-4.62,3.1-7.403,3.072h-448  c-2.877,0.007-5.629-1.174-7.605-3.264c-1.978-1.953-3.082-4.623-3.061-7.403V109.473l164.405,127.04L56.46,365.793l15.083,15.083  l131.2-131.2l46.731,36.117c3.84,2.964,9.195,2.964,13.035,0l46.731-36.117l131.2,131.2l15.083-15.083l-129.28-129.28  l164.427-127.04v295.861C490.672,408.207,489.491,410.955,487.404,412.929L487.404,412.929z"
   id="path14" />
<g
   id="g16">
</g>
<g
   id="g18">
</g>
<g
   id="g20">
</g>
<g
   id="g22">
</g>
<g
   id="g24">
</g>
<g
   id="g26">
</g>
<g
   id="g28">
</g>
<g
   id="g30">
</g>
<g
   id="g32">
</g>
<g
   id="g34">
</g>
<g
   id="g36">
</g>
<g
   id="g38">
</g>
<g
   id="g40">
</g>
<g
   id="g42">
</g>
<g
   id="g44">
</g>
<path
   style="opacity:1;fill:#241f1c;fill-opacity:1;fill-rule:evenodd;stroke:#000000;stroke-width:0.46022049;stroke-miterlimit:4;stroke-dasharray:none;stroke-opacity:1"
   d="M 18.722766,433.5002 C 11.973473,429.94207 7.298467,425.28436 3.9787155,418.81072 1.1294596,413.25457 1.051244,408.18286 1.4433886,254.41365 L 1.8480161,95.749581 6.4502207,89.215833 C 8.9814333,85.622272 14.094909,81.075843 17.8135,79.112658 l 6.761072,-3.569429 H 255.25982 c 254.59352,0 236.4463,-0.706725 247.11998,9.623834 9.83557,9.519386 9.54589,4.341531 9.54589,170.629177 0,169.18465 0.48498,161.49343 -10.82745,171.71352 -3.41422,3.08455 -7.94236,6.2678 -10.06254,7.07389 -2.39076,0.90897 -91.94114,1.44227 -235.78278,1.40418 C 46.818322,435.93264 22.858786,435.68065 18.722766,433.5002 Z M 488.29339,412.8776 c 2.82584,-3.1221 2.93602,-8.18981 3.33531,-153.40682 0.22712,-82.59793 -0.11797,-150.16248 -0.76704,-150.14344 -1.02291,0.03 -159.7566,122.10506 -163.74941,125.93244 -0.94589,0.9067 22.07914,25.00692 62.88328,65.81973 l 64.37558,64.38928 -7.28006,7.28004 -7.28006,7.28006 -65.57467,-65.43711 -65.57466,-65.43709 -24.44165,19.04497 c -15.6839,12.22092 -25.75328,19.04498 -28.1022,19.04498 -2.33666,0 -12.63808,-6.92509 -28.4837,-19.14807 l -24.82316,-19.14807 -65.57467,65.5402 -65.574664,65.54019 -7.280056,-7.28006 -7.280057,-7.28004 64.033837,-64.04746 c 35.2186,-35.2261 64.03383,-64.51402 64.03383,-65.08428 0,-0.89196 -156.967212,-122.86469 -162.227716,-126.06046 -1.528951,-0.92884 -1.917585,29.32232 -1.917585,149.26428 0,148.38381 0.04173,150.47094 3.068136,153.49736 3.040744,3.04074 5.11356,3.06814 232.173565,3.06814 H 485.371 Z M 363.95273,181.39277 c 58.18234,-44.9063 106.79693,-82.606056 108.03241,-83.777236 1.9168,-1.817062 -29.64317,-2.129418 -215.15307,-2.129418 -119.56966,0 -217.355255,0.517748 -217.301324,1.150551 0.16807,1.971988 215.347444,167.461003 217.037204,166.917833 0.87928,-0.28265 49.20243,-37.25543 107.38478,-82.16173 z"
   id="path4563"
   inkscape:connector-curvature="0" /></svg>