<?xml version="1.0" encoding="UTF-8" standalone="no"?>
<!-- Generator: Adobe Illustrator 19.0.0, SVG Export Plug-In . SVG Version: 6.00 Build 0)  -->

<svg
   xmlns:dc="http://purl.org/dc/elements/1.1/"
   xmlns:cc="http://creativecommons.org/ns#"
   xmlns:rdf="http://www.w3.org/1999/02/22-rdf-syntax-ns#"
   xmlns:svg="http://www.w3.org/2000/svg"
   xmlns="http://www.w3.org/2000/svg"
   xmlns:sodipodi="http://sodipodi.sourceforge.net/DTD/sodipodi-0.dtd"
   xmlns:inkscape="http://www.inkscape.org/namespaces/inkscape"
   width="64px"
   height="64px"
   viewBox="0 0 64 64"
   version="1.1"
   id="svg15"
   sodipodi:docname="email.svg"
   inkscape:version="0.92.5 (2060ec1f9f, 2020-04-08)">
  <metadata
     id="metadata21">
    <rdf:RDF>
      <cc:Work
         rdf:about="">
        <dc:format>image/svg+xml</dc:format>
        <dc:type
           rdf:resource="http://purl.org/dc/dcmitype/StillImage" />
      </cc:Work>
    </rdf:RDF>
  </metadata>
  <defs
     id="defs19" />
  <sodipodi:namedview
     pagecolor="#ffffff"
     bordercolor="#666666"
     borderopacity="1"
     objecttolerance="10"
     gridtolerance="10"
     guidetolerance="10"
     inkscape:pageopacity="0"
     inkscape:pageshadow="2"
     inkscape:window-width="1696"
     inkscape:window-height="813"
     id="namedview17"
     showgrid="false"
     inkscape:zoom="3.6875"
     inkscape:cx="32.542373"
     inkscape:cy="32"
     inkscape:window-x="0"
     inkscape:window-y="0"
     inkscape:window-maximized="0"
     inkscape:current-layer="surface1" />
  <g
     id="surface1">
    <path
       style="fill:#ffbd4f;fill-opacity:1;fill-rule:nonzero;stroke:none;stroke-width:0.99000001"
       d="m 61.580224,11.658594 c 0.502735,0.491133 0.785039,1.160156 0.781173,1.860117 v 36.962578 c 0.0039,0.699961 -0.278438,1.368984 -0.781173,1.860117 L 38.705811,29.466992 61.038818,12.2 Z m 0,0"
       id="path2"
       inkscape:connector-curvature="0" />
    <path
       style="fill:#ffbd4f;fill-opacity:1;fill-rule:nonzero;stroke:none;stroke-width:0.99000001"
       d="m 8.2401072,46.521289 -5.8085161,5.804649 -0.011601,0.01547 C 1.9172554,51.850273 1.634951,51.18125 1.6388179,50.481289 V 13.518711 c 0,-0.525938 0.1546875,-1.040273 0.4485938,-1.477265 L 2.9613965,12.2 25.294404,29.466992 Z m 0,0"
       id="path4"
       inkscape:connector-curvature="0" />
    <path
       style="fill:#ffe34f;fill-opacity:1;fill-rule:nonzero;stroke:none;stroke-width:0.99000001"
       d="m 2.4315911,52.329804 22.8628129,-22.862812 6.705703,5.174297 6.705704,-5.174297 22.874413,22.874414 c -0.487265,0.502735 -1.160156,0.781173 -1.860117,0.777305 H 4.2801072 c -0.6999607,0.0039 -1.3728518,-0.27457 -1.8601169,-0.777305 z m 0,0"
       id="path6"
       inkscape:connector-curvature="0" />
    <path
       style="fill:#ffe34f;fill-opacity:1;fill-rule:nonzero;stroke:none;stroke-width:0.99000001"
       d="m 59.720107,10.881289 c 0.699961,-0.0039 1.372852,0.27457 1.860117,0.777305 L 61.038818,12.2 38.705811,29.466992 32.000107,34.641289 25.294404,29.466992 2.9613965,12.2 2.0874117,12.041446 c 0.495,-0.727032 1.3148437,-1.160157 2.1926955,-1.160157 z m 0,0"
       id="path8"
       inkscape:connector-curvature="0" />
    <path
       style="fill:#4a5966;fill-opacity:1;fill-rule:nonzero;stroke:none;stroke-width:0.99000001"
       d="M 62.527686,10.738204 C 61.789053,9.9802339 60.775849,9.5548438 59.720107,9.5587107 H 4.2801072 c -1.3148437,0 -2.5446089,0.6496873 -3.28324191,1.7402353 -0.44472681,0.653554 -0.68062525,1.426992 -0.67675806,2.219765 v 36.962578 c -0.007734,1.04414 0.40992138,2.049609 1.15242137,2.780507 0.7386331,0.75797 1.7518367,1.18336 2.8075786,1.179493 H 59.720107 c 2.181094,-0.01547 3.948398,-1.778906 3.96,-3.96 V 13.518711 c 0.0077,-1.04414 -0.409921,-2.049609 -1.152421,-2.780507 z M 32.000107,32.974531 5.1192867,12.2 H 58.880928 Z M 60.63663,51.421016 C 60.396865,51.664648 60.064287,51.803867 59.720107,51.8 H 4.2801072 C 3.924326,51.8 3.5840135,51.653046 3.3403804,51.397812 3.0928804,51.154179 2.9575286,50.825469 2.9613965,50.481289 V 13.866758 L 23.30667,29.586875 7.3081153,45.585429 9.1720992,47.453281 25.41042,31.218829 l 5.781445,4.4666 c 0.475664,0.367384 1.136953,0.367384 1.612617,0 l 5.785313,-4.4666 16.234453,16.234452 1.867851,-1.867852 L 40.693545,29.586875 61.038818,13.866758 v 36.614531 c 0,0.355782 -0.143086,0.696094 -0.402188,0.939727 z m 0,0"
       id="path10"
       inkscape:connector-curvature="0" />
    <path
       style="fill:#231e19;fill-opacity:1;fill-rule:evenodd;stroke:#000000;stroke-width:0.05695223;stroke-linecap:butt;stroke-linejoin:miter;stroke-miterlimit:4;stroke-opacity:1"
       d="M 2.6365617,53.965836 C 1.8012459,53.524975 1.2250327,52.948762 0.81124202,52.148251 0.45932647,51.459889 0.4515921,50.833402 0.49799859,31.802897 L 0.54827216,12.169109 1.1167509,11.360864 c 0.3132435,-0.444729 0.9474647,-1.00934 1.4076619,-1.249107 L 3.3597286,9.6670289 H 31.907419 c 31.506101,0 29.263123,-0.085078 30.581839,1.1910981 1.218169,1.179497 1.183364,0.537542 1.183364,21.114927 0,20.937036 0.05801,19.985704 -1.341919,21.250279 -0.421525,0.382853 -0.98227,0.777308 -1.24524,0.877855 -0.293907,0.112149 -11.37731,0.177891 -29.178044,0.174024 C 6.1131769,54.267478 3.1470324,54.23654 2.6365617,53.965836 Z M 60.74515,51.413482 c 0.351915,-0.38672 0.363517,-1.013207 0.41379,-18.984098 0.02707,-10.221017 -0.01547,-18.581909 -0.09281,-18.581909 -0.127617,0.0039 -19.773007,15.113028 -20.264142,15.584827 -0.119883,0.112149 2.730245,3.097629 7.780812,8.148196 l 7.966438,7.966438 -1.802117,1.802116 -8.113391,-8.097922 -8.117259,-8.097923 -3.024152,2.355127 c -1.941336,1.512076 -3.186575,2.358993 -3.476615,2.358993 -0.290041,0 -1.566217,-0.858519 -3.526889,-2.370595 L 25.418253,31.126137 17.304862,39.239528 9.1876031,47.349052 7.3854866,45.546936 15.309385,37.61917 c 4.358337,-4.358337 7.923898,-7.981906 7.923898,-8.051516 0,-0.112149 -19.4249589,-15.205841 -20.074649,-15.600296 -0.1894929,-0.116016 -0.2358993,3.627437 -0.2358993,18.469761 0,18.365345 0.00387,18.620581 0.3789858,18.995699 0.3751187,0.375119 0.6342213,0.378986 28.7294485,0.378986 H 60.3855 Z m -15.3876,-28.64437 c 7.200732,-5.557171 13.218099,-10.224884 13.36892,-10.367971 0.239766,-0.224297 -3.666108,-0.262969 -26.621824,-0.262969 -14.799784,0 -26.9002618,0.06187 -26.8925273,0.139219 0.019336,0.243634 26.6488943,20.724339 26.8577223,20.658597 0.108282,-0.0348 6.090845,-4.609706 13.287709,-10.166876 z m 0,0"
       id="path12"
       inkscape:connector-curvature="0" />
  </g>
</svg>
