
<svg xmlns="http://www.w3.org/2000/svg" xmlns:xlink="http://www.w3.org/1999/xlink" width="64px" height="64px" viewBox="0 0 64 64" version="1.1">
<g id="surface1">
<path style=" stroke:none;fill-rule:nonzero;fill:rgb(87.058824%,84.705883%,81.568629%);fill-opacity:1;" d="M 51 8 C 53.210938 8 55 9.789062 55 12 L 55 51.640625 C 55 53.851562 53.210938 55.640625 51 55.640625 L 7 55.640625 C 4.789062 55.640625 3 53.851562 3 51.640625 L 3 12 C 3 9.789062 4.789062 8 7 8 Z M 51 8 "/>
<path style=" stroke:none;fill-rule:nonzero;fill:rgb(78.823531%,76.862746%,74.117649%);fill-opacity:1;" d="M 7 55.640625 L 51 55.640625 C 53.210938 55.640625 55 53.851562 55 51.640625 L 55 30 C 45.535156 40.355469 29.527344 47.96875 3 49.394531 L 3 51.640625 C 3 53.851562 4.789062 55.640625 7 55.640625 Z M 7 55.640625 "/>
<path style=" stroke:none;fill-rule:nonzero;fill:rgb(96.078432%,66.274512%,27.843139%);fill-opacity:1;" d="M 62 51 C 62 57.074219 57.074219 62 51 62 C 44.925781 62 40 57.074219 40 51 C 40 44.925781 44.925781 40 51 40 C 57.074219 40 62 44.925781 62 51 Z M 62 51 "/>
<path style=" stroke:none;fill-rule:nonzero;fill:rgb(94.117647%,61.56863%,22.745098%);fill-opacity:1;" d="M 57.589844 42.207031 C 58.972656 44.046875 59.800781 46.324219 59.800781 48.800781 C 59.800781 54.875 54.875 59.800781 48.800781 59.800781 C 46.324219 59.800781 44.046875 58.972656 42.207031 57.589844 C 44.214844 60.261719 47.402344 62 51 62 C 57.074219 62 62 57.074219 62 51 C 62 47.402344 60.261719 44.214844 57.589844 42.207031 Z M 57.589844 42.207031 "/>
<path style=" stroke:none;fill-rule:nonzero;fill:rgb(89.019608%,30.588236%,29.411766%);fill-opacity:1;" d="M 55 18 L 3 18 L 3 12 C 3 9.789062 4.789062 8 7 8 L 51 8 C 53.210938 8 55 9.789062 55 12 Z M 55 18 "/>
<path style=" stroke:none;fill-rule:nonzero;fill:rgb(96.078432%,66.274512%,27.843139%);fill-opacity:1;" d="M 12 13 C 10.894531 13 10 12.105469 10 11 L 10 5 C 10 3.894531 10.894531 3 12 3 C 13.105469 3 14 3.894531 14 5 L 14 11 C 14 12.105469 13.105469 13 12 13 Z M 12 13 "/>
<path style=" stroke:none;fill-rule:nonzero;fill:rgb(96.078432%,66.274512%,27.843139%);fill-opacity:1;" d="M 23 13 C 21.894531 13 21 12.105469 21 11 L 21 5 C 21 3.894531 21.894531 3 23 3 C 24.105469 3 25 3.894531 25 5 L 25 11 C 25 12.105469 24.105469 13 23 13 Z M 23 13 "/>
<path style=" stroke:none;fill-rule:nonzero;fill:rgb(96.078432%,66.274512%,27.843139%);fill-opacity:1;" d="M 35 13 C 33.894531 13 33 12.105469 33 11 L 33 5 C 33 3.894531 33.894531 3 35 3 C 36.105469 3 37 3.894531 37 5 L 37 11 C 37 12.105469 36.105469 13 35 13 Z M 35 13 "/>
<path style=" stroke:none;fill-rule:nonzero;fill:rgb(96.078432%,66.274512%,27.843139%);fill-opacity:1;" d="M 46 13 C 44.894531 13 44 12.105469 44 11 L 44 5 C 44 3.894531 44.894531 3 46 3 C 47.105469 3 48 3.894531 48 5 L 48 11 C 48 12.105469 47.105469 13 46 13 Z M 46 13 "/>
<path style=" stroke:none;fill-rule:nonzero;fill:rgb(31.37255%,71.372551%,81.176472%);fill-opacity:1;" d="M 9 23 L 15 23 L 15 29 L 9 29 Z M 9 23 "/>
<path style=" stroke:none;fill-rule:nonzero;fill:rgb(31.37255%,71.372551%,81.176472%);fill-opacity:1;" d="M 20 23 L 26 23 L 26 29 L 20 29 Z M 20 23 "/>
<path style=" stroke:none;fill-rule:nonzero;fill:rgb(31.37255%,71.372551%,81.176472%);fill-opacity:1;" d="M 31 23 L 37 23 L 37 29 L 31 29 Z M 31 23 "/>
<path style=" stroke:none;fill-rule:nonzero;fill:rgb(31.37255%,71.372551%,81.176472%);fill-opacity:1;" d="M 42 23 L 48 23 L 48 29 L 42 29 Z M 42 23 "/>
<path style=" stroke:none;fill-rule:nonzero;fill:rgb(31.37255%,71.372551%,81.176472%);fill-opacity:1;" d="M 9 34 L 15 34 L 15 40 L 9 40 Z M 9 34 "/>
<path style=" stroke:none;fill-rule:nonzero;fill:rgb(31.37255%,71.372551%,81.176472%);fill-opacity:1;" d="M 20 34 L 26 34 L 26 40 L 20 40 Z M 20 34 "/>
<path style=" stroke:none;fill-rule:nonzero;fill:rgb(31.37255%,71.372551%,81.176472%);fill-opacity:1;" d="M 31 34 L 37 34 L 37 40 L 31 40 Z M 31 34 "/>
<path style=" stroke:none;fill-rule:nonzero;fill:rgb(31.37255%,71.372551%,81.176472%);fill-opacity:1;" d="M 42 34 L 48 34 L 48 40 L 42 40 Z M 42 34 "/>
<path style=" stroke:none;fill-rule:nonzero;fill:rgb(31.37255%,71.372551%,81.176472%);fill-opacity:1;" d="M 9 45 L 15 45 L 15 51 L 9 51 Z M 9 45 "/>
<path style=" stroke:none;fill-rule:nonzero;fill:rgb(31.37255%,71.372551%,81.176472%);fill-opacity:1;" d="M 20 45 L 26 45 L 26 51 L 20 51 Z M 20 45 "/>
<path style=" stroke:none;fill-rule:nonzero;fill:rgb(31.37255%,71.372551%,81.176472%);fill-opacity:1;" d="M 31 45 L 37 45 L 37 51 L 31 51 Z M 31 45 "/>
<path style=" stroke:none;fill-rule:nonzero;fill:rgb(5.098039%,5.882353%,13.725491%);fill-opacity:1;" d="M 56 40.105469 L 56 12 C 56 9.242188 53.757812 7 51 7 L 49 7 L 49 5 C 49 3.34375 47.65625 2 46 2 C 44.34375 2 43 3.34375 43 5 L 43 7 L 38 7 L 38 5 C 38 3.34375 36.65625 2 35 2 C 33.34375 2 32 3.34375 32 5 L 32 7 L 26 7 L 26 5 C 26 3.34375 24.65625 2 23 2 C 21.34375 2 20 3.34375 20 5 L 20 7 L 15 7 L 15 5 C 15 3.34375 13.65625 2 12 2 C 10.34375 2 9 3.34375 9 5 L 9 7 L 7 7 C 4.242188 7 2 9.242188 2 12 L 2 52 C 2 54.757812 4.242188 57 7 57 L 40.625 57 C 42.703125 60.582031 46.570312 63 51 63 C 57.617188 63 63 57.617188 63 51 C 63 46.167969 60.125 42.007812 56 40.105469 Z M 45 5 C 45 4.449219 45.449219 4 46 4 C 46.550781 4 47 4.449219 47 5 L 47 11 C 47 11.550781 46.550781 12 46 12 C 45.449219 12 45 11.550781 45 11 Z M 34 5 C 34 4.449219 34.449219 4 35 4 C 35.550781 4 36 4.449219 36 5 L 36 11 C 36 11.550781 35.550781 12 35 12 C 34.449219 12 34 11.550781 34 11 Z M 22 5 C 22 4.449219 22.449219 4 23 4 C 23.550781 4 24 4.449219 24 5 L 24 11 C 24 11.550781 23.550781 12 23 12 C 22.449219 12 22 11.550781 22 11 Z M 11 5 C 11 4.449219 11.449219 4 12 4 C 12.550781 4 13 4.449219 13 5 L 13 11 C 13 11.550781 12.550781 12 12 12 C 11.449219 12 11 11.550781 11 11 Z M 7 9 L 9 9 L 9 11 C 9 12.65625 10.34375 14 12 14 C 13.65625 14 15 12.65625 15 11 L 15 9 L 20 9 L 20 11 C 20 12.65625 21.34375 14 23 14 C 24.65625 14 26 12.65625 26 11 L 26 9 L 32 9 L 32 11 C 32 12.65625 33.34375 14 35 14 C 36.65625 14 38 12.65625 38 11 L 38 9 L 43 9 L 43 11 C 43 12.65625 44.34375 14 46 14 C 47.65625 14 49 12.65625 49 11 L 49 9 L 51 9 C 52.65625 9 54 10.34375 54 12 L 54 17 L 4 17 L 4 12 C 4 10.34375 5.34375 9 7 9 Z M 7 55 C 5.34375 55 4 53.65625 4 52 L 4 19 L 54 19 L 54 39.394531 C 53.039062 39.144531 52.039062 39 51 39 C 50.316406 39 49.652344 39.070312 49 39.179688 L 49 34 C 49 33.449219 48.550781 33 48 33 L 42 33 C 41.449219 33 41 33.449219 41 34 L 41 40 C 41 40.550781 41.449219 41 42 41 L 44.382812 41 C 41.140625 43.152344 39 46.828125 39 51 C 39 52.402344 39.253906 53.746094 39.699219 55 Z M 47 39 L 43 39 L 43 35 L 47 35 Z M 51 61 C 45.488281 61 41 56.511719 41 51 C 41 45.488281 45.488281 41 51 41 C 56.511719 41 61 45.488281 61 51 C 61 56.511719 56.511719 61 51 61 Z M 51 61 "/>
<path style=" stroke:none;fill-rule:nonzero;fill:rgb(5.098039%,5.882353%,13.725491%);fill-opacity:1;" d="M 52 49.277344 L 52 43 L 50 43 L 50 49.277344 C 49.40625 49.625 49 50.261719 49 51 C 49 51.101562 49.015625 51.199219 49.03125 51.296875 L 45.375 54.21875 L 46.625 55.78125 L 50.277344 52.859375 C 50.5 52.949219 50.742188 53 51 53 C 52.105469 53 53 52.105469 53 51 C 53 50.261719 52.59375 49.625 52 49.277344 Z M 52 49.277344 "/>
<path style=" stroke:none;fill-rule:nonzero;fill:rgb(5.098039%,5.882353%,13.725491%);fill-opacity:1;" d="M 15 22 L 9 22 C 8.449219 22 8 22.449219 8 23 L 8 29 C 8 29.550781 8.449219 30 9 30 L 15 30 C 15.550781 30 16 29.550781 16 29 L 16 23 C 16 22.449219 15.550781 22 15 22 Z M 14 28 L 10 28 L 10 24 L 14 24 Z M 14 28 "/>
<path style=" stroke:none;fill-rule:nonzero;fill:rgb(5.098039%,5.882353%,13.725491%);fill-opacity:1;" d="M 26 22 L 20 22 C 19.449219 22 19 22.449219 19 23 L 19 29 C 19 29.550781 19.449219 30 20 30 L 26 30 C 26.550781 30 27 29.550781 27 29 L 27 23 C 27 22.449219 26.550781 22 26 22 Z M 25 28 L 21 28 L 21 24 L 25 24 Z M 25 28 "/>
<path style=" stroke:none;fill-rule:nonzero;fill:rgb(5.098039%,5.882353%,13.725491%);fill-opacity:1;" d="M 37 22 L 31 22 C 30.449219 22 30 22.449219 30 23 L 30 29 C 30 29.550781 30.449219 30 31 30 L 37 30 C 37.550781 30 38 29.550781 38 29 L 38 23 C 38 22.449219 37.550781 22 37 22 Z M 36 28 L 32 28 L 32 24 L 36 24 Z M 36 28 "/>
<path style=" stroke:none;fill-rule:nonzero;fill:rgb(5.098039%,5.882353%,13.725491%);fill-opacity:1;" d="M 42 30 L 48 30 C 48.550781 30 49 29.550781 49 29 L 49 23 C 49 22.449219 48.550781 22 48 22 L 42 22 C 41.449219 22 41 22.449219 41 23 L 41 29 C 41 29.550781 41.449219 30 42 30 Z M 43 24 L 47 24 L 47 28 L 43 28 Z M 43 24 "/>
<path style=" stroke:none;fill-rule:nonzero;fill:rgb(5.098039%,5.882353%,13.725491%);fill-opacity:1;" d="M 15 33 L 9 33 C 8.449219 33 8 33.449219 8 34 L 8 40 C 8 40.550781 8.449219 41 9 41 L 15 41 C 15.550781 41 16 40.550781 16 40 L 16 34 C 16 33.449219 15.550781 33 15 33 Z M 14 39 L 10 39 L 10 35 L 14 35 Z M 14 39 "/>
<path style=" stroke:none;fill-rule:nonzero;fill:rgb(5.098039%,5.882353%,13.725491%);fill-opacity:1;" d="M 26 33 L 20 33 C 19.449219 33 19 33.449219 19 34 L 19 40 C 19 40.550781 19.449219 41 20 41 L 26 41 C 26.550781 41 27 40.550781 27 40 L 27 34 C 27 33.449219 26.550781 33 26 33 Z M 25 39 L 21 39 L 21 35 L 25 35 Z M 25 39 "/>
<path style=" stroke:none;fill-rule:nonzero;fill:rgb(5.098039%,5.882353%,13.725491%);fill-opacity:1;" d="M 37 33 L 31 33 C 30.449219 33 30 33.449219 30 34 L 30 40 C 30 40.550781 30.449219 41 31 41 L 37 41 C 37.550781 41 38 40.550781 38 40 L 38 34 C 38 33.449219 37.550781 33 37 33 Z M 36 39 L 32 39 L 32 35 L 36 35 Z M 36 39 "/>
<path style=" stroke:none;fill-rule:nonzero;fill:rgb(5.098039%,5.882353%,13.725491%);fill-opacity:1;" d="M 15 44 L 9 44 C 8.449219 44 8 44.449219 8 45 L 8 51 C 8 51.550781 8.449219 52 9 52 L 15 52 C 15.550781 52 16 51.550781 16 51 L 16 45 C 16 44.449219 15.550781 44 15 44 Z M 14 50 L 10 50 L 10 46 L 14 46 Z M 14 50 "/>
<path style=" stroke:none;fill-rule:nonzero;fill:rgb(5.098039%,5.882353%,13.725491%);fill-opacity:1;" d="M 26 44 L 20 44 C 19.449219 44 19 44.449219 19 45 L 19 51 C 19 51.550781 19.449219 52 20 52 L 26 52 C 26.550781 52 27 51.550781 27 51 L 27 45 C 27 44.449219 26.550781 44 26 44 Z M 25 50 L 21 50 L 21 46 L 25 46 Z M 25 50 "/>
<path style=" stroke:none;fill-rule:nonzero;fill:rgb(5.098039%,5.882353%,13.725491%);fill-opacity:1;" d="M 37 44 L 31 44 C 30.449219 44 30 44.449219 30 45 L 30 51 C 30 51.550781 30.449219 52 31 52 L 37 52 C 37.550781 52 38 51.550781 38 51 L 38 45 C 38 44.449219 37.550781 44 37 44 Z M 36 50 L 32 50 L 32 46 L 36 46 Z M 36 50 "/>
</g>
</svg>
