<!-- Generator: Adobe Illustrator 19.0.0, SVG Export Plug-In . SVG Version: 6.00 Build 0)  -->
<svg xmlns="http://www.w3.org/2000/svg" xmlns:xlink="http://www.w3.org/1999/xlink" width="64px" height="64px" viewBox="0 0 64 64" version="1.1">
<g id="surface1">
<path style=" stroke:none;fill-rule:evenodd;fill:rgb(0%,0%,0%);fill-opacity:1;" d="M 9.058594 6.703125 L 55.023438 6.703125 C 59.023438 6.703125 62.265625 9.945312 62.265625 13.941406 L 62.265625 49.652344 C 62.265625 53.648438 59.023438 56.890625 55.023438 56.890625 L 9.058594 56.890625 C 5.058594 56.890625 1.816406 53.648438 1.816406 49.652344 L 1.816406 13.941406 C 1.816406 9.945312 5.058594 6.703125 9.058594 6.703125 Z M 9.058594 6.703125 "/>
<path style=" stroke:none;fill-rule:nonzero;fill:rgb(47.450981%,80.784315%,96.470588%);fill-opacity:1;" d="M 59.558594 53.386719 C 58.414062 55.105469 56.71875 56.101562 54.925781 56.101562 L 9.074219 56.101562 C 7.28125 56.101562 5.585938 55.105469 4.441406 53.386719 L 26.570312 30.339844 L 28.863281 32.300781 C 30.75 33.929688 33.25 33.929688 35.136719 32.300781 L 37.429688 30.339844 Z M 59.558594 53.386719 "/>
<path style=" stroke:none;fill-rule:nonzero;fill:rgb(62.352943%,94.901961%,100%);fill-opacity:1;" d="M 59.898438 11.125 L 37.429688 30.339844 L 35.136719 32.300781 C 33.25 33.929688 30.75 33.929688 28.863281 32.300781 L 26.570312 30.339844 L 4.101562 11.09375 C 5.234375 9.054688 7.089844 7.839844 9.074219 7.835938 L 54.925781 7.835938 C 56.917969 7.820312 58.785156 9.054688 59.898438 11.125 Z M 59.898438 11.125 "/>
<path style=" stroke:none;fill-rule:nonzero;fill:rgb(12.941177%,58.823532%,95.294118%);fill-opacity:1;" d="M 26.570312 30.339844 L 4.441406 53.386719 C 3.535156 52.035156 3.039062 50.324219 3.039062 48.558594 L 3.039062 15.378906 C 3.03125 13.847656 3.402344 12.351562 4.101562 11.09375 Z M 26.570312 30.339844 "/>
<path style=" stroke:none;fill-rule:nonzero;fill:rgb(12.941177%,58.823532%,95.294118%);fill-opacity:1;" d="M 60.960938 15.378906 L 60.960938 48.558594 C 60.960938 50.324219 60.464844 52.035156 59.558594 53.386719 L 37.429688 30.339844 L 59.898438 11.125 C 60.59375 12.371094 60.964844 13.855469 60.960938 15.378906 Z M 60.960938 15.378906 "/>
<path style="fill:none;stroke-width:10.130323;stroke-linecap:butt;stroke-linejoin:miter;stroke:rgb(0%,0%,0%);stroke-opacity:1;stroke-miterlimit:4;" d="M 32.812563 88.750169 L 240.281708 270.375516 " transform="matrix(0.125,0,0,0.125,0,0)"/>
<path style="fill:none;stroke-width:10.130323;stroke-linecap:butt;stroke-linejoin:miter;stroke:rgb(0%,0%,0%);stroke-opacity:1;stroke-miterlimit:4;" d="M 479.188414 89.00017 L 271.719268 270.625516 " transform="matrix(0.125,0,0,0.125,0,0)"/>
<path style="fill:none;stroke-width:10.123234;stroke-linecap:butt;stroke-linejoin:miter;stroke:rgb(0%,0%,0%);stroke-opacity:1;stroke-miterlimit:4;" d="M 209.8754 242.437962 L 35.531318 427.094565 " transform="matrix(0.125,0,0,0.125,0,0)"/>
<path style="fill:none;stroke-width:10.123234;stroke-linecap:butt;stroke-linejoin:miter;stroke:rgb(0%,0%,0%);stroke-opacity:1;stroke-miterlimit:4;" d="M 302.125576 242.437962 L 476.469659 427.094565 " transform="matrix(0.125,0,0,0.125,0,0)"/>
<path style="fill:none;stroke-width:10.768994;stroke-linecap:butt;stroke-linejoin:miter;stroke:rgb(0%,0%,0%);stroke-opacity:1;stroke-miterlimit:4;" d="M 243.312964 271.813018 C 243.906715 273.656772 245.156718 271.188017 245.937969 271.813018 C 246.21922 272.031769 246.31297 272.62552 246.59422 272.84427 C 246.969221 273.156771 247.500472 272.53177 247.906723 272.84427 C 248.187973 273.063021 248.281724 273.656772 248.562974 273.875522 C 248.750474 274.031773 249.000475 273.875522 249.219225 273.875522 C 249.437976 273.875522 249.656726 273.875522 249.875477 273.875522 C 250.094227 273.875522 250.312977 273.875522 250.531728 273.875522 C 250.750478 273.875522 251.000479 273.719272 251.187979 273.875522 C 251.46923 274.094273 251.56298 274.688024 251.84423 274.906774 C 252.031731 275.063025 255.344237 274.906774 255.812988 274.906774 C 256.031738 274.906774 256.250489 274.906774 256.469239 274.906774 C 256.68799 274.906774 256.93799 275.063025 257.12549 274.906774 C 257.406741 274.688024 257.500491 274.094273 257.781742 273.875522 C 257.969242 273.719272 258.219243 273.875522 258.437993 273.875522 C 258.656743 273.875522 258.875494 273.875522 259.094244 273.875522 C 260.406747 273.875522 261.719249 273.875522 263.031752 273.875522 C 263.188002 273.875522 265.000505 273.906772 265.031756 273.875522 C 266.125508 272.156769 262.594251 272.84427 266.344258 272.84427 C 268.094261 272.84427 269.844265 272.84427 271.594268 272.84427 C 273.344271 272.84427 271.375518 273.188021 272.250519 271.813018 C 272.40677 271.563018 273.094271 271.625518 272.906771 271.813018 C 272.62552 272.063019 272.250519 272.000519 271.938019 272.094269 " transform="matrix(0.125,0,0,0.125,0,0)"/>
</g>
</svg>
