<?xml version="1.0" encoding="UTF-8" standalone="no"?>
<svg
   xmlns:dc="http://purl.org/dc/elements/1.1/"
   xmlns:cc="http://creativecommons.org/ns#"
   xmlns:rdf="http://www.w3.org/1999/02/22-rdf-syntax-ns#"
   xmlns:svg="http://www.w3.org/2000/svg"
   xmlns="http://www.w3.org/2000/svg"
   xmlns:sodipodi="http://sodipodi.sourceforge.net/DTD/sodipodi-0.dtd"
   xmlns:inkscape="http://www.inkscape.org/namespaces/inkscape"
   data-name="Layer 1"
   viewBox="0 0 64 64"
   version="1.1"
   id="svg24"
   sodipodi:docname="task-list.svg"
   inkscape:version="0.92.3 (2405546, 2018-03-11)"
   width="64"
   height="64">
  <metadata
     id="metadata30">
    <rdf:RDF>
      <cc:Work
         rdf:about="">
        <dc:format>image/svg+xml</dc:format>
        <dc:type
           rdf:resource="http://purl.org/dc/dcmitype/StillImage" />
        <dc:title></dc:title>
      </cc:Work>
    </rdf:RDF>
  </metadata>
  <defs
     id="defs28" />
  <sodipodi:namedview
     pagecolor="#ffffff"
     bordercolor="#666666"
     borderopacity="1"
     objecttolerance="10"
     gridtolerance="10"
     guidetolerance="10"
     inkscape:pageopacity="0"
     inkscape:pageshadow="2"
     inkscape:window-width="1600"
     inkscape:window-height="829"
     id="namedview26"
     showgrid="false"
     inkscape:zoom="7.375"
     inkscape:cx="27.813459"
     inkscape:cy="36.288951"
     inkscape:window-x="0"
     inkscape:window-y="0"
     inkscape:window-maximized="1"
     inkscape:current-layer="svg24" />
  <rect
     width="43.589832"
     height="55.173271"
     x="2.0378532"
     y="7.2991161"
     rx="4.151412"
     ry="3.940948"
     id="rect2"
     style="fill:#b28966;stroke-width:2.02240562" />
  <path
     d="M 33.173779,58.531442 H 8.2649718 A 2.0757062,1.9704741 0 0 1 6.1892655,56.560967 V 13.210539 A 2.0757062,1.9704741 0 0 1 8.2649718,11.240064 H 39.400565 a 2.0757062,1.9704741 0 0 1 2.075706,1.970475 v 37.438652"
     id="path4"
     inkscape:connector-curvature="0"
     style="fill:#ffffff;stroke-width:2.02240562" />
  <path
     d="M 29.022034,7.2991161 V 6.5946913 a 5.3926847,5.1192917 0 0 0 -4.654128,-5.1815192 5.1903449,4.9272098 0 0 0 -5.724403,4.900707 v 0.985237 h -2.075707 a 2.0757062,1.9704741 0 0 0 -2.075706,1.970474 v 3.9409489 a 2.0757062,1.9704741 0 0 0 2.075706,1.970473 H 31.09774 a 2.0757062,1.9704741 0 0 0 2.075707,-1.970473 V 9.2695901 A 2.0757062,1.9704741 0 0 0 31.09774,7.2991161 Z"
     id="path6"
     inkscape:connector-curvature="0"
     style="fill:#afaeb3;stroke-width:2.02240562" />
  <ellipse
     cx="23.832769"
     cy="7.2991161"
     id="circle8"
     style="fill:#ffffff;stroke-width:2.02240562"
     rx="1.037853"
     ry="0.985237" />
  <path
     d="m 33.173447,58.531442 v -5.911423 a 2.0757062,1.9704741 0 0 1 2.075706,-1.970473 h 6.227118 z"
     id="path10"
     inkscape:connector-curvature="0"
     style="fill:#afaeb3;stroke-width:2.02240562" />
  <ellipse
     cx="15.529943"
     cy="24.048145"
     id="circle12"
     style="fill:#5856f0;fill-opacity:1;stroke-width:2.02240562"
     rx="3.1135592"
     ry="2.9557111" />
  <ellipse
     cx="15.529943"
     cy="47.693832"
     id="circle14"
     style="fill:#5856f6;fill-opacity:1;stroke-width:2.02240562"
     rx="3.1135592"
     ry="2.9557111" />
  <ellipse
     cx="15.529943"
     cy="35.870991"
     id="circle16"
     style="fill:#5856f6;fill-opacity:1;stroke-width:2.02240562"
     rx="3.1135592"
     ry="2.9557111" />
  <path
     d="m 58.081921,13.210539 v 36.118789 a 4.0860692,3.8789176 0 0 1 -0.830282,2.364569 l -1.245424,1.576379 -1.037854,1.320218 -1.037852,-1.320218 -1.245424,-1.576379 A 4.0860692,3.8789176 0 0 1 51.854803,49.329328 V 13.210539 a 2.0819333,1.9763855 0 0 1 2.075706,-1.970475 h 2.075706 a 2.0819333,1.9763855 0 0 1 2.075706,1.970475 z"
     id="path18"
     style="fill:#ffff00;fill-opacity:1;stroke-width:2.02240562"
     inkscape:connector-curvature="0" />
  <path
     d="m 58.081921,46.708598 v 2.62073 a 4.0860692,3.8789176 0 0 1 -0.830282,2.364569 l -2.283278,2.896597 -2.283276,-2.896597 a 4.0860692,3.8789176 0 0 1 -0.830282,-2.364569 v -2.62073 z m 0,-33.498059 v 4.926185 h -6.227118 v -4.926185 a 2.0819333,1.9763855 0 0 1 2.075706,-1.970475 h 2.075706 a 2.0819333,1.9763855 0 0 1 2.075706,1.970475 z"
     id="path20"
     style="fill:#fe5627;fill-opacity:1;stroke-width:2.02240562"
     inkscape:connector-curvature="0" />
  <path
     d="M 41.476271,6.3138791 H 30.059887 A 6.4256807,6.0999178 0 0 0 24.476238,0.44186631 6.236999,5.9208017 0 0 0 17.60565,6.3138791 H 6.1892655 A 5.1911545,4.9279783 0 0 0 1,11.240064 v 47.291378 a 5.1911545,4.9279783 0 0 0 5.1892655,4.926185 H 41.476271 a 5.1911545,4.9279783 0 0 0 5.189266,-4.926185 V 11.240064 A 5.1911545,4.9279783 0 0 0 41.476271,6.3138791 Z M 15.529944,12.225301 V 9.2695901 a 1.0277029,0.97560142 0 0 1 1.037852,-0.9852369 h 2.075707 a 1.0277652,0.97566053 0 0 0 1.037853,-0.9852371 v -0.985237 a 4.1547543,3.9441206 0 0 1 1.369966,-2.9163017 4.0447211,3.8396658 0 0 1 3.217345,-1.0049417 4.3212675,4.102192 0 0 1 3.694757,3.9212434 1.274878,1.2102455 0 0 1 0.02075,0.2758663 v 0.7093707 a 1.0277652,0.97566053 0 0 0 1.037853,0.9852371 h 2.075706 a 1.0277029,0.97560142 0 0 1 1.037857,0.9852369 v 3.9409489 a 1.0277652,0.97566053 0 0 1 -1.03785,0.985236 H 16.567796 a 1.0277652,0.97566053 0 0 1 -1.037852,-0.985236 z m 1.037852,3.940948 H 31.09774 a 3.1094079,2.9517701 0 0 0 3.113559,-2.95571 v -0.985238 h 5.189266 a 1.0277029,0.97560142 0 0 1 1.037853,0.985238 v 36.45377 h -5.189265 a 3.1169634,2.9589427 0 0 0 -3.11356,2.95571 v 4.926186 H 8.2649718 A 1.0277652,0.97566053 0 0 1 7.2271187,56.560967 V 13.210539 a 1.0277029,0.97560142 0 0 1 1.0378531,-0.985238 h 5.1892662 v 0.985238 a 3.1094079,2.9517701 0 0 0 3.113558,2.95571 z m 22.403098,35.468533 -4.759595,4.518297 v -3.53306 a 1.0385589,0.985907 0 0 1 1.037854,-0.985237 z m 5.618937,6.89666 a 3.1094079,2.9517701 0 0 1 -3.11356,2.955711 H 6.1892655 A 3.1094079,2.9517701 0 0 1 3.0757062,58.531442 V 11.240064 A 3.1094079,2.9517701 0 0 1 6.1892655,8.2843532 H 13.641051 A 2.8769288,2.7310771 0 0 0 13.454238,9.2695901 V 10.254827 H 8.2649718 a 3.1094079,2.9517701 0 0 0 -3.1135593,2.955712 v 43.350428 a 3.1094079,2.9517701 0 0 0 3.1135593,2.955712 H 33.173447 a 1.0381022,0.98547349 0 0 0 0.393885,-0.07386 1.0139618,0.96255688 0 0 0 0.355631,-0.229717 l 8.271503,-7.852222 a 1.0115747,0.96029083 0 0 0 0.267766,-0.462311 0.95986882,0.91120632 0 0 0 0.02534,-0.121717 0.9853585,0.93540375 0 0 0 0.02655,-0.127312 V 13.210539 A 3.1094079,2.9517701 0 0 0 39.400565,10.254827 H 34.211299 V 9.2695901 A 2.8769288,2.7310771 0 0 0 34.024486,8.2843532 h 7.451785 a 3.1094079,2.9517701 0 0 1 3.11356,2.9557108 z M 23.832768,8.2843532 A 1.0378531,0.98523703 0 1 0 22.794915,7.2991161 1.0277652,0.97566053 0 0 0 23.832768,8.2843532 Z M 11.378531,24.048145 a 4.1514125,3.9409482 0 1 0 4.151413,-3.940948 4.1636799,3.9525937 0 0 0 -4.151413,3.940948 z m 4.151413,-1.970473 a 2.0757062,1.9704741 0 1 1 -2.075706,1.970473 2.0819333,1.9763855 0 0 1 2.075706,-1.970473 z m 0,21.675214 a 4.1514125,3.9409482 0 1 0 4.151412,3.940948 4.1555639,3.9448891 0 0 0 -4.151412,-3.940948 z m 0,5.911423 a 2.0757062,1.9704741 0 1 1 2.075706,-1.970475 2.0784047,1.9730357 0 0 1 -2.075706,1.970475 z m 0,-17.734267 a 4.1514125,3.9409482 0 1 0 4.151412,3.940948 4.1555639,3.9448891 0 0 0 -4.151412,-3.940948 z m 0,5.911422 a 2.0757062,1.9704741 0 1 1 2.075706,-1.970474 2.0784047,1.9730357 0 0 1 -2.075706,1.970474 z m 9.340677,-15.763792 h 10.378532 a 1.0378536,0.9852375 0 0 0 0,-1.970475 H 24.870621 a 1.0378536,0.9852375 0 0 0 0,1.970475 z m 0,5.911421 h 4.151413 a 1.0378531,0.98523703 0 0 0 0,-1.970473 h -4.151413 a 1.0378531,0.98523703 0 0 0 0,1.970473 z m 0,5.911423 h 10.378532 a 1.0378531,0.98523703 0 0 0 0,-1.970474 H 24.870621 a 1.0378531,0.98523703 0 0 0 0,1.970474 z m 0,5.911422 h 4.151413 a 1.0378533,0.98523724 0 0 0 0,-1.970474 h -4.151413 a 1.0378533,0.98523724 0 0 0 0,1.970474 z m 0,5.911423 h 10.378532 a 1.0378536,0.9852375 0 0 0 0,-1.970475 H 24.870621 a 1.0378536,0.9852375 0 0 0 0,1.970475 z m 0,5.911421 h 4.151413 a 1.0378531,0.98523703 0 0 0 0,-1.970473 h -4.151413 a 1.0378531,0.98523703 0 0 0 0,1.970473 z M 60.157627,18.136724 h -1.037853 v -4.926185 a 3.1094079,2.9517701 0 0 0 -3.113559,-2.955712 h -2.075706 a 3.1094079,2.9517701 0 0 0 -3.11356,2.955712 v 36.118789 a 5.2434829,4.9776539 0 0 0 1.037854,2.955711 l 2.075706,2.633401 v 1.642527 a 1.0378531,0.98523703 0 0 0 2.075706,0 v -1.642625 l 2.075706,-2.633401 a 5.2434829,4.9776539 0 0 0 1.037853,-2.955712 V 20.107197 h 1.037853 a 1.0385589,0.985907 0 0 1 1.037853,0.985238 v 7.881896 a 1.0378536,0.9852375 0 0 0 2.075707,0 v -7.881896 a 3.1169634,2.9589427 0 0 0 -3.11356,-2.955711 z m -3.113559,31.192604 a 3.1090758,2.9514548 0 0 1 -0.622712,1.773427 l -1.452995,1.852246 -1.452993,-1.852246 a 3.1090758,2.9514548 0 0 1 -0.622713,-1.773427 v -1.635494 h 4.151413 z m 0,-3.605967 H 52.892655 V 18.136724 h 4.151413 z m 0,-29.557112 h -4.151413 v -2.95571 a 1.0277029,0.97560142 0 0 1 1.037854,-0.985238 h 2.075706 a 1.0277029,0.97560142 0 0 1 1.037853,0.985238 z"
     id="path22"
     inkscape:connector-curvature="0"
     style="stroke-width:2.02240562" />
</svg>
