<?xml version="1.0" encoding="UTF-8" standalone="no"?>
<svg
   xmlns:dc="http://purl.org/dc/elements/1.1/"
   xmlns:cc="http://creativecommons.org/ns#"
   xmlns:rdf="http://www.w3.org/1999/02/22-rdf-syntax-ns#"
   xmlns:svg="http://www.w3.org/2000/svg"
   xmlns="http://www.w3.org/2000/svg"
   xmlns:sodipodi="http://sodipodi.sourceforge.net/DTD/sodipodi-0.dtd"
   xmlns:inkscape="http://www.inkscape.org/namespaces/inkscape"
   id="Capa_1"
   enable-background="new 0 0 512.047 512.047"
   height="16"
   viewBox="0 0 16.001469 16.001469"
   width="16"
   version="1.1"
   sodipodi:docname="attach.svg"
   inkscape:version="0.92.5 (2060ec1f9f, 2020-04-08)">
  <metadata
     id="metadata25">
    <rdf:RDF>
      <cc:Work
         rdf:about="">
        <dc:format>image/svg+xml</dc:format>
        <dc:type
           rdf:resource="http://purl.org/dc/dcmitype/StillImage" />
        <dc:title></dc:title>
      </cc:Work>
    </rdf:RDF>
  </metadata>
  <defs
     id="defs23">
    <filter
       style="color-interpolation-filters:sRGB;"
       inkscape:label="Colorize"
       id="filter865">
      <feComposite
         in2="SourceGraphic"
         operator="arithmetic"
         k1="0"
         k2="5.6"
         result="composite1"
         id="feComposite851" />
      <feColorMatrix
         in="composite1"
         values="1"
         type="saturate"
         result="colormatrix1"
         id="feColorMatrix853" />
      <feFlood
         flood-opacity="1"
         flood-color="rgb(227,67,0)"
         result="flood1"
         id="feFlood855" />
      <feBlend
         in="flood1"
         in2="colormatrix1"
         mode="multiply"
         result="blend1"
         id="feBlend857" />
      <feBlend
         in2="blend1"
         mode="screen"
         result="blend2"
         id="feBlend859" />
      <feColorMatrix
         in="blend2"
         values="1"
         type="saturate"
         result="colormatrix2"
         id="feColorMatrix861" />
      <feComposite
         in="colormatrix2"
         in2="SourceGraphic"
         operator="in"
         k2="1"
         result="composite2"
         id="feComposite863" />
    </filter>
  </defs>
  <sodipodi:namedview
     pagecolor="#ffffff"
     bordercolor="#666666"
     borderopacity="1"
     objecttolerance="10"
     gridtolerance="10"
     guidetolerance="10"
     inkscape:pageopacity="0"
     inkscape:pageshadow="2"
     inkscape:window-width="1920"
     inkscape:window-height="1010"
     id="namedview21"
     showgrid="false"
     inkscape:zoom="20.85965"
     inkscape:cx="12.663027"
     inkscape:cy="-0.95013824"
     inkscape:window-x="0"
     inkscape:window-y="0"
     inkscape:window-maximized="1"
     inkscape:current-layer="Capa_1" />
  <g
     id="g18"
     transform="matrix(0.0337657,0,0,0.03125008,-0.64408917,2.2550663e-6)"
     style="filter:url(#filter865)">
    <g
       id="g10">
      <g
         id="g4">
        <path
           d="m 130.409,504.532 c -26.58,0 -53.16,-10.118 -73.395,-30.353 -19.605,-19.605 -30.402,-45.671 -30.402,-73.395 0,-27.725 10.797,-53.791 30.402,-73.396 l 297.34,-297.34 c 14.504,-14.504 33.787,-22.492 54.298,-22.492 20.511,0 39.795,7.987 54.298,22.492 14.504,14.503 22.491,33.786 22.491,54.298 0,20.511 -7.987,39.795 -22.491,54.298 L 205.978,395.617 c -19.41,19.409 -50.992,19.409 -70.402,0 -19.41,-19.41 -19.41,-50.992 0,-70.402 L 316.351,144.44 c 5.317,-5.317 13.94,-5.317 19.257,0 5.318,5.317 5.318,13.939 0,19.257 L 154.833,344.472 c -8.791,8.792 -8.791,23.096 0,31.888 8.792,8.792 23.096,8.792 31.888,0 L 443.693,119.389 c 9.36,-9.36 14.514,-21.805 14.514,-35.041 0,-13.237 -5.154,-25.681 -14.514,-35.041 -19.322,-19.322 -50.76,-19.322 -70.082,0 l -297.34,297.34 c -14.461,14.461 -22.425,33.688 -22.425,54.138 0,20.451 7.964,39.677 22.425,54.138 29.852,29.852 78.425,29.851 108.276,10e-4 L 406.29,233.179 c 5.317,-5.317 13.94,-5.317 19.257,0 5.318,5.317 5.318,13.94 0,19.257 L 203.804,474.18 c -20.235,20.235 -46.815,30.352 -73.395,30.352 z"
           id="path2"
           inkscape:connector-curvature="0"
           style="fill:#5a5a5a" />
      </g>
      <g
         id="g8">
        <path
           d="m 425.547,252.437 c 5.318,-5.317 5.318,-13.94 0,-19.257 -5.317,-5.317 -13.94,-5.317 -19.257,0 L 184.547,454.922 c -18.182,18.181 -43.305,25.267 -66.917,21.301 -4.813,0.674 -9.664,1.015 -14.516,1.015 -20.472,0 -40.94,-6.009 -58.513,-18.012 3.628,5.303 7.77,10.311 12.412,14.954 20.235,20.235 46.815,30.353 73.395,30.353 26.58,0 53.16,-10.118 73.396,-30.353 z"
           id="path6"
           inkscape:connector-curvature="0"
           style="fill:#444444" />
      </g>
    </g>
    <g
       id="g16">
      <path
         d="m 149.524,339.148 c -11.729,11.729 -11.73,30.763 0,42.496 11.73,11.728 30.765,11.734 42.496,0 L 449.005,124.66 c 22.299,-22.3 22.301,-58.391 0,-80.693 -22.271,-22.269 -58.42,-22.268 -80.692,0 l -223.139,223.14 c -2.929,2.93 -2.929,7.678 0,10.607 2.929,2.928 7.678,2.928 10.606,0 L 378.92,54.574 c 16.407,-16.406 43.071,-16.408 59.479,0 16.437,16.437 16.438,43.041 0,59.479 L 181.413,371.038 c -5.868,5.869 -15.413,5.867 -21.282,0 -5.866,-5.867 -5.869,-15.415 0,-21.283 3.178,-3.178 176.687,-176.688 180.784,-180.785 8.252,-8.254 8.253,-21.609 -0.001,-29.864 -8.252,-8.25 -21.613,-8.253 -29.864,0 L 130.266,319.891 c -22.359,22.361 -22.358,58.651 0,81.012 22.36,22.357 58.653,22.357 81.012,0 L 377.401,234.782 c 2.929,-2.93 2.929,-7.678 0,-10.607 -2.929,-2.928 -7.678,-2.928 -10.606,0 l -166.123,166.12 c -16.495,16.495 -43.302,16.496 -59.799,10e-4 -16.495,-16.497 -16.497,-43.302 0,-59.799 L 321.657,149.712 c 2.388,-2.388 6.262,-2.39 8.651,0.001 2.395,2.395 2.386,6.264 0,8.65 -8.172,8.173 -175.187,175.188 -180.784,180.785 z"
         id="path12"
         inkscape:connector-curvature="0" />
      <path
         d="m 402.15,210.032 66.114,-66.113 c 32.942,-32.942 32.947,-86.265 0,-119.21 -32.944,-32.945 -86.261,-32.946 -119.208,0 L 51.701,322.063 c -43.499,43.501 -43.503,113.901 0,157.406 43.437,43.435 113.966,43.436 157.404,0 L 430.858,257.715 c 8.253,-8.252 8.255,-21.611 0,-29.866 -8.251,-8.25 -21.614,-8.252 -29.865,0 L 179.24,449.604 c -26.946,26.944 -70.73,26.945 -97.675,0 -26.991,-26.991 -26.996,-70.681 0,-97.674 l 49.467,-49.468 c 2.929,-2.93 2.929,-7.678 0,-10.607 -2.929,-2.928 -7.678,-2.928 -10.606,0 l -49.467,49.468 c -32.856,32.855 -32.858,86.029 0,118.889 32.804,32.804 86.077,32.808 118.888,0 L 411.6,238.456 c 2.388,-2.388 6.262,-2.39 8.651,0.001 2.391,2.391 2.391,6.261 0,8.651 L 198.498,468.862 c -37.577,37.575 -98.616,37.574 -136.191,0 -37.637,-37.638 -37.64,-98.551 0,-136.191 L 359.661,35.316 c 27.081,-27.082 70.912,-27.086 97.996,0 27.081,27.079 27.083,70.913 0,97.995 l -66.114,66.113 c -2.929,2.93 -2.929,7.678 0,10.607 2.929,2.929 7.678,2.929 10.607,0.001 z"
         id="path14"
         inkscape:connector-curvature="0" />
    </g>
  </g>
</svg>
