<?xml version="1.0" encoding="UTF-8" standalone="no"?>
<!-- Generator: Adobe Illustrator 19.0.0, SVG Export Plug-In . SVG Version: 6.00 Build 0)  -->

<svg
   xmlns:dc="http://purl.org/dc/elements/1.1/"
   xmlns:cc="http://creativecommons.org/ns#"
   xmlns:rdf="http://www.w3.org/1999/02/22-rdf-syntax-ns#"
   xmlns:svg="http://www.w3.org/2000/svg"
   xmlns="http://www.w3.org/2000/svg"
   xmlns:sodipodi="http://sodipodi.sourceforge.net/DTD/sodipodi-0.dtd"
   xmlns:inkscape="http://www.inkscape.org/namespaces/inkscape"
   version="1.1"
   id="Capa_1"
   x="0px"
   y="0px"
   viewBox="0 0 16 16"
   xml:space="preserve"
   sodipodi:docname="diskette.svg"
   width="16"
   height="16"
   inkscape:version="0.92.5 (2060ec1f9f, 2020-04-08)"><metadata
   id="metadata65"><rdf:RDF><cc:Work
       rdf:about=""><dc:format>image/svg+xml</dc:format><dc:type
         rdf:resource="http://purl.org/dc/dcmitype/StillImage" /><dc:title></dc:title></cc:Work></rdf:RDF></metadata><defs
   id="defs63" /><sodipodi:namedview
   pagecolor="#ffffff"
   bordercolor="#666666"
   borderopacity="1"
   objecttolerance="10"
   gridtolerance="10"
   guidetolerance="10"
   inkscape:pageopacity="0"
   inkscape:pageshadow="2"
   inkscape:window-width="1808"
   inkscape:window-height="864"
   id="namedview61"
   showgrid="false"
   inkscape:zoom="32"
   inkscape:cx="0.8445931"
   inkscape:cy="8.8615824"
   inkscape:window-x="0"
   inkscape:window-y="0"
   inkscape:window-maximized="0"
   inkscape:current-layer="Capa_1" />
<path
   style="fill:#2670b5;fill-opacity:1;stroke-width:0.03125"
   d="m 15.86269,2.63731 -2.5,-2.5 C 13.27478,0.04941 13.15556,0 13.03125,0 H 0.46875 C 0.20987,0 0,0.20987 0,0.46875 v 15.0625 C 0,15.79012 0.20987,16 0.46875,16 h 15.0625 C 15.79012,16 16,15.79012 16,15.53125 V 2.96875 C 16,2.84444 15.9506,2.72522 15.86269,2.63731 Z"
   id="path2"
   inkscape:connector-curvature="0" />
<path
   style="fill:#2670b5;fill-opacity:1;stroke-width:0.03125"
   d="m 15.86269,2.63731 -2.5,-2.5 C 13.27478,0.04941 13.15556,0 13.03125,0 H 8 v 16 h 7.53125 C 15.79012,16 16,15.79012 16,15.53125 V 2.96875 C 16,2.84444 15.9506,2.72522 15.86269,2.63731 Z"
   id="path4"
   inkscape:connector-curvature="0" />
<path
   style="fill:#ffffff;fill-opacity:1;stroke-width:0.03125"
   d="m 12.6875,7.5625 h -9.375 c -0.25888,0 -0.46875,0.20987 -0.46875,0.46875 V 16 h 10.3125 V 8.03125 c 0,-0.25888 -0.20988,-0.46875 -0.46875,-0.46875 z"
   id="path6"
   inkscape:connector-curvature="0" />
<path
   style="fill:#ffffff;fill-opacity:1;stroke-width:0.03125"
   d="m 13.15625,8.03125 c 0,-0.25888 -0.20988,-0.46875 -0.46875,-0.46875 H 8 V 16 h 5.15625 z"
   id="path8"
   inkscape:connector-curvature="0" />
<g
   id="g16"
   transform="scale(0.03125)">
	<path
   style="fill:#fcb12b;fill-opacity:1"
   d="M 346,452 H 166 c -8.284,0 -15,-6.716 -15,-15 0,-8.284 6.716,-15 15,-15 h 180 c 8.284,0 15,6.716 15,15 0,8.284 -6.716,15 -15,15 z"
   id="path10"
   inkscape:connector-curvature="0" />
	<path
   style="fill:#fcb12b;fill-opacity:0.94117647"
   d="M 346,332 H 166 c -8.284,0 -15,-6.716 -15,-15 0,-8.284 6.716,-15 15,-15 h 180 c 8.284,0 15,6.716 15,15 0,8.284 -6.716,15 -15,15 z"
   id="path12"
   inkscape:connector-curvature="0" />
	<path
   style="fill:#fcb12b;fill-opacity:1"
   d="M 346,392 H 166 c -8.284,0 -15,-6.716 -15,-15 0,-8.284 6.716,-15 15,-15 h 180 c 8.284,0 15,6.716 15,15 0,8.284 -6.716,15 -15,15 z"
   id="path14"
   inkscape:connector-curvature="0" />
</g>
<path
   style="fill:#d3d3d3;fill-opacity:1;stroke-width:0.03125"
   d="M 11.28125,0 H 2.84375 V 4.53125 C 2.84375,4.79012 3.05362,5 3.3125,5 h 7.5 c 0.25887,0 0.46875,-0.20988 0.46875,-0.46875 z"
   id="path18"
   inkscape:connector-curvature="0" />
<path
   style="fill:#d3d3d3;fill-opacity:1;stroke-width:0.03125"
   d="m 8,0 v 5 h 2.8125 c 0.25887,0 0.46875,-0.20988 0.46875,-0.46875 V 0 Z"
   id="path20"
   inkscape:connector-curvature="0" />
<g
   id="g28"
   transform="scale(0.03125)">
	<path
   style="fill:#fcb12b"
   d="m 346,422 h -90 v 30 h 90 c 8.284,0 15,-6.716 15,-15 0,-8.284 -6.716,-15 -15,-15 z"
   id="path22"
   inkscape:connector-curvature="0" />
	<path
   style="fill:#fcb12b"
   d="m 346,302 h -90 v 30 h 90 c 8.284,0 15,-6.716 15,-15 0,-8.284 -6.716,-15 -15,-15 z"
   id="path24"
   inkscape:connector-curvature="0" />
	<path
   style="fill:#fcb12b"
   d="m 346,362 h -90 v 30 h 90 c 8.284,0 15,-6.716 15,-15 0,-8.284 -6.716,-15 -15,-15 z"
   id="path26"
   inkscape:connector-curvature="0" />
</g>
<g
   id="g30"
   transform="scale(0.03125)">
</g>
<g
   id="g32"
   transform="scale(0.03125)">
</g>
<g
   id="g34"
   transform="scale(0.03125)">
</g>
<g
   id="g36"
   transform="scale(0.03125)">
</g>
<g
   id="g38"
   transform="scale(0.03125)">
</g>
<g
   id="g40"
   transform="scale(0.03125)">
</g>
<g
   id="g42"
   transform="scale(0.03125)">
</g>
<g
   id="g44"
   transform="scale(0.03125)">
</g>
<g
   id="g46"
   transform="scale(0.03125)">
</g>
<g
   id="g48"
   transform="scale(0.03125)">
</g>
<g
   id="g50"
   transform="scale(0.03125)">
</g>
<g
   id="g52"
   transform="scale(0.03125)">
</g>
<g
   id="g54"
   transform="scale(0.03125)">
</g>
<g
   id="g56"
   transform="scale(0.03125)">
</g>
<g
   id="g58"
   transform="scale(0.03125)">
</g>
</svg>