<?xml version="1.0" encoding="UTF-8" standalone="no"?>
<!-- Generator: Adobe Illustrator 19.0.0, SVG Export Plug-In . SVG Version: 6.00 Build 0)  -->

<svg
   xmlns:dc="http://purl.org/dc/elements/1.1/"
   xmlns:cc="http://creativecommons.org/ns#"
   xmlns:rdf="http://www.w3.org/1999/02/22-rdf-syntax-ns#"
   xmlns:svg="http://www.w3.org/2000/svg"
   xmlns="http://www.w3.org/2000/svg"
   xmlns:sodipodi="http://sodipodi.sourceforge.net/DTD/sodipodi-0.dtd"
   xmlns:inkscape="http://www.inkscape.org/namespaces/inkscape"
   version="1.1"
   id="Capa_1"
   x="0px"
   y="0px"
   viewBox="0 0 16 16"
   xml:space="preserve"
   sodipodi:docname="security.svg"
   inkscape:version="0.92.5 (2060ec1f9f, 2020-04-08)"
   width="16"
   height="16"><metadata
   id="metadata43"><rdf:RDF><cc:Work
       rdf:about=""><dc:format>image/svg+xml</dc:format><dc:type
         rdf:resource="http://purl.org/dc/dcmitype/StillImage" /><dc:title></dc:title></cc:Work></rdf:RDF></metadata><defs
   id="defs41" /><sodipodi:namedview
   pagecolor="#ffffff"
   bordercolor="#666666"
   borderopacity="1"
   objecttolerance="10"
   gridtolerance="10"
   guidetolerance="10"
   inkscape:pageopacity="0"
   inkscape:pageshadow="2"
   inkscape:window-width="1920"
   inkscape:window-height="1010"
   id="namedview39"
   showgrid="false"
   inkscape:zoom="29.732283"
   inkscape:cx="7.67843"
   inkscape:cy="10.829229"
   inkscape:window-x="0"
   inkscape:window-y="0"
   inkscape:window-maximized="1"
   inkscape:current-layer="Capa_1" />
<path
   style="fill:#ff0000;fill-opacity:1;stroke-width:0.03149606"
   d="M 8.4913386,0.26456693 8,0 7.5086614,0.26456693 C 5.2062992,1.5055118 2.6267717,2.1543307 0,2.1543307 V 5.880315 C 0,10.658268 3.2944882,14.822047 8,16 v 0 0 c 4.705512,-1.177953 8,-5.341732 8,-10.1165354 V 2.1574803 c -2.623622,0 -5.206299,-0.6519685 -7.5086614,-1.89291337 z"
   id="path2"
   inkscape:connector-curvature="0" />
<path
   style="fill:#ffd15c;stroke-width:0.03149606"
   d="M 8,14.620472 C 4.0566929,13.486614 1.3322835,9.9401575 1.3322835,5.8834646 V 3.4393701 C 3.6598425,3.2566929 5.9370079,2.6015748 8,1.5149606 c 2.062992,1.0866142 4.340157,1.7417323 6.667717,1.9244095 v 2.4440945 c 0,4.0566929 -2.72441,7.6031494 -6.667717,8.7370074 z"
   id="path4"
   inkscape:connector-curvature="0" />
<polygon
   style="fill:#000000;fill-opacity:1"
   points="210.4,366.7 121.3,278 166.1,233 210.3,277 341.8,145.5 386.7,190.4 "
   id="polygon6"
   transform="scale(0.03149606)" />
<g
   id="g8"
   transform="scale(0.03149606)">
</g>
<g
   id="g10"
   transform="scale(0.03149606)">
</g>
<g
   id="g12"
   transform="scale(0.03149606)">
</g>
<g
   id="g14"
   transform="scale(0.03149606)">
</g>
<g
   id="g16"
   transform="scale(0.03149606)">
</g>
<g
   id="g18"
   transform="scale(0.03149606)">
</g>
<g
   id="g20"
   transform="scale(0.03149606)">
</g>
<g
   id="g22"
   transform="scale(0.03149606)">
</g>
<g
   id="g24"
   transform="scale(0.03149606)">
</g>
<g
   id="g26"
   transform="scale(0.03149606)">
</g>
<g
   id="g28"
   transform="scale(0.03149606)">
</g>
<g
   id="g30"
   transform="scale(0.03149606)">
</g>
<g
   id="g32"
   transform="scale(0.03149606)">
</g>
<g
   id="g34"
   transform="scale(0.03149606)">
</g>
<g
   id="g36"
   transform="scale(0.03149606)">
</g>
</svg>