<?xml version="1.0" encoding="UTF-8" standalone="no"?>
<!-- Generator: Adobe Illustrator 19.0.0, SVG Export Plug-In . SVG Version: 6.00 Build 0)  -->

<svg
   xmlns:dc="http://purl.org/dc/elements/1.1/"
   xmlns:cc="http://creativecommons.org/ns#"
   xmlns:rdf="http://www.w3.org/1999/02/22-rdf-syntax-ns#"
   xmlns:svg="http://www.w3.org/2000/svg"
   xmlns="http://www.w3.org/2000/svg"
   xmlns:sodipodi="http://sodipodi.sourceforge.net/DTD/sodipodi-0.dtd"
   xmlns:inkscape="http://www.inkscape.org/namespaces/inkscape"
   version="1.1"
   id="Layer_1"
   x="0px"
   y="0px"
   viewBox="0 0 16.000001 16.000001"
   xml:space="preserve"
   sodipodi:docname="send.svg"
   inkscape:version="0.92.5 (2060ec1f9f, 2020-04-08)"
   width="16"
   height="16"><metadata
   id="metadata51"><rdf:RDF><cc:Work
       rdf:about=""><dc:format>image/svg+xml</dc:format><dc:type
         rdf:resource="http://purl.org/dc/dcmitype/StillImage" /><dc:title /></cc:Work></rdf:RDF></metadata><defs
   id="defs49" /><sodipodi:namedview
   pagecolor="#ffffff"
   bordercolor="#666666"
   borderopacity="1"
   objecttolerance="10"
   gridtolerance="10"
   guidetolerance="10"
   inkscape:pageopacity="0"
   inkscape:pageshadow="2"
   inkscape:window-width="1899"
   inkscape:window-height="940"
   id="namedview47"
   showgrid="false"
   inkscape:zoom="41.719221"
   inkscape:cx="4.2043764"
   inkscape:cy="5.6456012"
   inkscape:window-x="0"
   inkscape:window-y="0"
   inkscape:window-maximized="0"
   inkscape:current-layer="Layer_1" />
<polygon
   style="fill:#ffff72;fill-opacity:1"
   points="503.831,40.851 102.537,236.375 150.572,471.15 "
   id="polygon2"
   transform="matrix(0.0311849,0,0,0.03574918,0.01668483,-1.1520272)" />
<polygon
   style="fill:#fff472;fill-opacity:1"
   points="251.97,369.49 150.572,471.15 167.839,323.312 232.546,325.082 "
   id="polygon4"
   transform="matrix(0.0311849,0,0,0.03574918,0.01668483,-1.1520272)" />
<g
   id="g10"
   style="fill:#ffffff;fill-opacity:1;stroke:#ffa4a6;stroke-opacity:1"
   transform="matrix(0.0311849,0,0,0.03574918,0.01668483,-1.1520272)">
	<polygon
   style="fill:#ffffff;fill-opacity:1;stroke:#ffa4a6;stroke-opacity:1"
   points="8.17,233.352 503.831,40.851 114.133,293.049 "
   id="polygon6" />
	<polygon
   style="fill:#ffffff;fill-opacity:1;stroke:#ffa4a6;stroke-opacity:1"
   points="503.831,40.851 503.319,42.278 298.835,395.21 167.839,323.312 "
   id="polygon8" />
</g>
<polygon
   style="fill:#ffff72;fill-opacity:1;stroke:#ff0000;stroke-opacity:1;opacity:1"
   points="363.968,430.963 298.835,395.21 503.319,42.278 "
   id="polygon12"
   transform="matrix(0.0311849,0,0,0.03574918,0.01668483,-1.1520272)" />
<path
   d="M 15.906389,0.09915854 C 15.834911,0.01933058 15.729321,-0.0053723 15.63639,0.03609676 L 0.17925171,6.9177774 C 0.08738102,6.9586744 0.02435631,7.0565557 0.01733972,7.169237 0.01032306,7.2819186 0.06056199,7.3890586 0.14638282,7.4445059 L 3.3496644,9.5134894 4.4614373,15.743105 c 0.00692,0.04404 0.022546,0.08505 0.044968,0.12026 0.00225,0.0035 0.00409,0.0063 0.00595,0.009 0.039168,0.05616 0.094709,0.09538 0.1594484,0.107248 0.00826,0.0015 0.016559,0.0026 0.024792,0.0031 0.00533,3.93e-4 0.010634,5.72e-4 0.015935,5.72e-4 0.048617,0 0.094678,-0.01595 0.1339392,-0.0439 0.013285,-0.0094 0.025914,-0.02034 0.03764,-0.03271 0.00365,-0.0039 0.00683,-0.0073 0.00992,-0.01094 l 2.8265649,-3.381446 c 0.099355,-0.114219 0.1203546,-0.125421 0.020719,-0.239354 -0.09973,-0.113933 -0.2397688,-0.173004 -0.3391551,-0.05879 l -2.3517663,2.672675 0.4092706,-4.017993 5.784642,3.639766 c 0.05825,0.03646 0.122994,0.04429 0.182307,0.02788 0.0066,-0.0018 0.01247,-0.0038 0.01836,-0.0059 0.05856,-0.02177 0.109958,-0.0671 0.14264,-0.132164 0.0016,-0.0034 0.0031,-0.0064 0.0045,-0.0094 0.0067,-0.01444 0.01192,-0.0286 0.01612,-0.04297 L 15.968416,0.40692291 c 0.03365,-0.10767633 0.0095,-0.22800813 -0.06202,-0.30776437 z M 0.865912,7.2387335 13.499913,1.6139223 3.5668673,8.9832574 Z m 4.2251796,2.9394405 c -0.023825,0.02191 -0.044563,0.04912 -0.06078,0.08104 -0.00212,0.0042 -0.00412,0.0084 -0.00605,0.01266 -0.015468,0.03428 -0.024449,0.0705 -0.027412,0.106747 L 4.6434324,13.848327 3.8604731,9.4612596 12.439595,3.0964051 Z M 11.227875,13.833813 5.6992906,10.355168 15.1703,1.2279386 Z"
   id="path14"
   style="fill:#ff0000;fill-opacity:1;fill-rule:nonzero;stroke:#ff0000;stroke-width:0.03338914;stroke-opacity:1"
   inkscape:connector-curvature="0"
   sodipodi:nodetypes="cccscccccccsccccccccccccccccccccccccccccccccc" />
<g
   id="g16"
   transform="matrix(0.0311849,0,0,0.03574918,0.01668483,-1.1520272)">
</g>
<g
   id="g18"
   transform="matrix(0.0311849,0,0,0.03574918,0.01668483,-1.1520272)">
</g>
<g
   id="g20"
   transform="matrix(0.0311849,0,0,0.03574918,0.01668483,-1.1520272)">
</g>
<g
   id="g22"
   transform="matrix(0.0311849,0,0,0.03574918,0.01668483,-1.1520272)">
</g>
<g
   id="g24"
   transform="matrix(0.0311849,0,0,0.03574918,0.01668483,-1.1520272)">
</g>
<g
   id="g26"
   transform="matrix(0.0311849,0,0,0.03574918,0.01668483,-1.1520272)">
</g>
<g
   id="g28"
   transform="matrix(0.0311849,0,0,0.03574918,0.01668483,-1.1520272)">
</g>
<g
   id="g30"
   transform="matrix(0.0311849,0,0,0.03574918,0.01668483,-1.1520272)">
</g>
<g
   id="g32"
   transform="matrix(0.0311849,0,0,0.03574918,0.01668483,-1.1520272)">
</g>
<g
   id="g34"
   transform="matrix(0.0311849,0,0,0.03574918,0.01668483,-1.1520272)">
</g>
<g
   id="g36"
   transform="matrix(0.0311849,0,0,0.03574918,0.01668483,-1.1520272)">
</g>
<g
   id="g38"
   transform="matrix(0.0311849,0,0,0.03574918,0.01668483,-1.1520272)">
</g>
<g
   id="g40"
   transform="matrix(0.0311849,0,0,0.03574918,0.01668483,-1.1520272)">
</g>
<g
   id="g42"
   transform="matrix(0.0311849,0,0,0.03574918,0.01668483,-1.1520272)">
</g>
<g
   id="g44"
   transform="matrix(0.0311849,0,0,0.03574918,0.01668483,-1.1520272)">
</g>
</svg>