<?xml version="1.0" encoding="UTF-8" standalone="no"?>
<svg
   xmlns:dc="http://purl.org/dc/elements/1.1/"
   xmlns:cc="http://creativecommons.org/ns#"
   xmlns:rdf="http://www.w3.org/1999/02/22-rdf-syntax-ns#"
   xmlns:svg="http://www.w3.org/2000/svg"
   xmlns="http://www.w3.org/2000/svg"
   xmlns:sodipodi="http://sodipodi.sourceforge.net/DTD/sodipodi-0.dtd"
   xmlns:inkscape="http://www.inkscape.org/namespaces/inkscape"
   id="svg1"
   viewBox="0 0 16 16"
   sodipodi:version="0.32"
   _SVGFile__filename="oldscale/actions/syntax.svg"
   version="1.0"
   inkscape:version="0.92.5 (2060ec1f9f, 2020-04-08)"
   y="0"
   x="0"
   sodipodi:docname="spelling.svg"
   width="16"
   height="16">
  <defs
     id="defs13" />
  <sodipodi:namedview
     id="base"
     bordercolor="#666666"
     inkscape:window-x="0"
     inkscape:window-y="0"
     pagecolor="#ffffff"
     inkscape:zoom="13.893067"
     inkscape:pageshadow="2"
     borderopacity="1.0"
     inkscape:current-layer="svg1"
     inkscape:cx="18.956308"
     inkscape:cy="22.87477"
     inkscape:window-width="1920"
     inkscape:pageopacity="0.0000000"
     inkscape:window-height="1010"
     showgrid="false"
     inkscape:window-maximized="1" />
  <g
     id="g1105"
     transform="matrix(0.20160565,0,0,0.20233384,0.2190739,0.23824675)">
    <path
       id="path1736"
       d="m 6.6786,5.1165 c -1.108,0 -2,0.892 -2,2 v 46.384 c 0,1.109 0.892,2.001 2,2.001 h 46.744 c 1.108,0 2,-0.892 2,-2 V 7.1175 c 0,-1.1085 -0.892,-2.0005 -2,-2.0005 H 6.6786 Z"
       style="fill:none;stroke:#ffffff;stroke-width:11.53299999;stroke-linejoin:round"
       transform="matrix(0.99769,0,0,1.0047,0.018582,-0.45062)"
       inkscape:connector-curvature="0" />
    <path
       id="rect812"
       d="m 6.6786,5.1165 c -1.108,0 -2,0.892 -2,2 v 46.384 c 0,1.109 0.892,2.001 2,2.001 h 46.744 c 1.108,0 2,-0.892 2,-2 V 7.1175 c 0,-1.1085 -0.892,-2.0005 -2,-2.0005 H 6.6786 Z"
       style="fill:#ffffff;fill-rule:evenodd;stroke:#000000;stroke-width:4.43590021;stroke-linejoin:round"
       transform="matrix(0.99769,0,0,1.0047,0.018582,-0.45062)"
       inkscape:connector-curvature="0" />
  </g>
  <g
     id="g1724"
     transform="matrix(0.20827019,0,0,0.20897749,2.8826937,2.8533414)">
    <path
       id="path1723"
       style="fill:none;stroke:#ffffff;stroke-width:9.75990009;stroke-linecap:round;stroke-linejoin:round"
       d="M 19.448,40.335 C 24.321,44.77 27.47,48.761 32.682,58.011 44.014,29.409 59.529,22.065 57.561,20.799 53.58,18.128 34.214,40.517 31.873,43.471 29.056,41.98 19.448,36.767 19.448,40.335 Z"
       inkscape:connector-curvature="0" />
    <path
       id="path845"
       style="fill:#62b01e;fill-rule:evenodd;stroke:#62b01e;stroke-width:3.25329995;stroke-linecap:round;stroke-linejoin:round"
       d="M 19.448,40.335 C 24.321,44.77 27.47,48.761 32.682,58.011 44.014,29.409 59.529,22.065 57.561,20.799 53.58,18.128 34.214,40.517 31.873,43.471 29.056,41.98 19.448,36.767 19.448,40.335 Z"
       inkscape:connector-curvature="0" />
  </g>
  <path
     id="text1102"
     style="fill:#000000;stroke-width:0.40750074"
     d="m 4.9383095,5.9115198 v 1.8895213 c 0,0.1146999 -0.035799,0.2106275 -0.1073976,0.2869591 -0.071599,0.076743 -0.1627244,0.1146999 -0.2741903,0.1146999 -0.087463,0 -0.1610971,-0.023675 -0.2217117,-0.071845 C 4.2764289,8.0830928 4.2316807,8.0259479 4.2015759,7.9590058 4.1157387,8.063912 4.0205454,8.1390179 3.9155881,8.1835116 c -0.1033293,0.046534 -0.2265934,0.069393 -0.3693838,0.069393 -0.217644,0 -0.4165741,-0.061235 -0.5959777,-0.1840952 C 2.7724505,7.9443166 2.6308803,7.7753246 2.5259232,7.561841 2.4225933,7.3467235 2.3709284,7.1111967 2.3709284,6.8560766 c 0,-0.2518545 0.051664,-0.4845239 0.1549948,-0.6980085 C 2.6308797,5.9425427 2.7728574,5.7735512 2.9526676,5.6506854 3.1320712,5.5265948 3.3301878,5.4641415 3.5462043,5.4641415 c 0.1444175,0 0.2676813,0.022449 0.3693838,0.066945 0.1033305,0.044901 0.1985237,0.1204166 0.2859878,0.227363 0.028883,-0.065312 0.073226,-0.1220494 0.133434,-0.1698078 0.060615,-0.049391 0.1342475,-0.074292 0.2217117,-0.074292 0.1114665,0 0.2025914,0.038369 0.2741903,0.1151109 0.071598,0.074699 0.1073976,0.1689913 0.1073976,0.2820602 M 3.6536018,6.205827 c -0.1623172,0 -0.2900559,0.062047 -0.3840292,0.1865437 -0.091939,0.1240901 -0.1383156,0.2787949 -0.1383156,0.463706 0,0.1183756 0.020746,0.2281793 0.062243,0.3302276 0.041087,0.1004157 0.1008891,0.1800125 0.1785896,0.2392004 0.079327,0.059189 0.1733012,0.088577 0.2815129,0.088577 0.1635379,0 0.2912764,-0.062453 0.3836225,-0.1865436 C 4.129164,7.2014069 4.1755407,7.0442528 4.1755407,6.8560763 4.1755407,6.6695326 4.1291637,6.5152358 4.037225,6.39237 3.9448783,6.2678721 3.8171401,6.2058266 3.6536022,6.2058266 M 5.2625379,7.8010411 V 4.7657249 c 0,-0.1147022 0.035799,-0.2102192 0.1069918,-0.2869592 0.071599,-0.07633 0.1623171,-0.1147021 0.2717495,-0.1147021 0.1114664,0 0.2025915,0.038371 0.2741903,0.1147021 0.071599,0.076741 0.1073976,0.1722572 0.1073976,0.2869592 V 5.681708 c 0.085837,-0.071433 0.1745216,-0.1257231 0.2668677,-0.1624606 0.093566,-0.036739 0.2143892,-0.055106 0.3624683,-0.055106 0.2160162,0 0.4137261,0.062453 0.5935365,0.1865439 0.1810305,0.1228658 0.3234143,0.2918573 0.4263373,0.5073828 0.1049564,0.2134845 0.1574357,0.4461539 0.1574357,0.6980084 0,0.1963406 -0.029289,0.3771696 -0.088278,0.5433039 C 7.6842819,7.5651064 7.6008858,7.7132801 7.491047,7.8439012 7.3816144,7.9749311 7.2559105,8.0761633 7.1143405,8.1480049 6.973177,8.2178062 6.8189959,8.2529114 6.6522037,8.2529114 c -0.1431974,0 -0.2664609,-0.022858 -0.369791,-0.069393 C 6.1794893,8.1390297 6.0847029,8.0639182 5.9988658,7.9590129 5.9671351,8.0275867 5.9211643,8.0855516 5.8605503,8.1333104 5.8019694,8.1798449 5.7287436,8.2027034 5.6412795,8.2027034 5.5302199,8.2027034 5.4386876,8.1647479 5.3670892,8.088004 5.2975244,8.0100337 5.2625388,7.9141138 5.2625388,7.8010447 M 6.5448055,6.2058302 c -0.1619106,0 -0.2900559,0.062047 -0.3836224,0.1865437 -0.092345,0.1240904 -0.1383155,0.2787953 -0.1383155,0.4637064 0,0.1183755 0.020745,0.2281792 0.061835,0.3302276 0.041495,0.1004158 0.1008892,0.1800125 0.1789967,0.2392004 0.079327,0.059188 0.1728946,0.088577 0.2811061,0.088577 0.1635377,0 0.2916829,-0.062453 0.3836221,-0.1865436 0.092346,-0.1261312 0.1383157,-0.2832854 0.1383157,-0.4714618 0,-0.1865438 -0.045969,-0.3408405 -0.1383157,-0.4637063 C 6.8364882,6.2678721 6.7083431,6.2058266 6.5448054,6.2058266 m 1.4323796,0.65025 c 0,-0.2534873 0.054105,-0.4869731 0.1623176,-0.7004577 0.1082115,-0.2155253 0.2591383,-0.384517 0.45278,-0.5073828 0.195676,-0.1224576 0.4182013,-0.1840946 0.667576,-0.1840946 0.1318067,0 0.2676816,0.015918 0.4076243,0.047757 0.1397393,0.030614 0.2573078,0.083271 0.3526641,0.1579704 0.09536,0.075106 0.143034,0.1763389 0.143034,0.3036948 0,0.1020477 -0.03017,0.1873601 -0.09059,0.2559366 -0.05878,0.068577 -0.1326603,0.1028642 -0.2216708,0.1028642 -0.042918,0 -0.084983,-0.00694 -0.1264775,-0.021225 C 9.6849752,6.2964435 9.6442931,6.2813426 9.6032052,6.2654221 9.5633375,6.2478727 9.5202143,6.2335833 9.4742463,6.2225608 9.4299025,6.211129 9.373357,6.2058259 9.3050132,6.2058259 c -0.1240773,0 -0.2286277,0.029388 -0.3144646,0.088169 -0.084208,0.057556 -0.1480771,0.1359282 -0.1907921,0.2347105 -0.041495,0.097149 -0.061834,0.206545 -0.061834,0.3273701 0,0.1183754 0.020339,0.2281795 0.061834,0.3302274 0.041087,0.1004158 0.1008889,0.1800127 0.1785898,0.2392006 0.079735,0.059189 0.1733012,0.088577 0.2815128,0.088577 0.1224501,0 0.2453068,-0.023267 0.369384,-0.069393 0.1240772,-0.046126 0.1978318,-0.069393 0.2216712,-0.069393 0.057196,0 0.1096361,0.016736 0.1573147,0.050208 0.04767,0.033472 0.08503,0.077149 0.112035,0.1314379 0.02859,0.052656 0.04291,0.1069458 0.04291,0.1628687 0,0.1179671 -0.05166,0.2175657 -0.154953,0.298796 -0.1017069,0.08123 -0.22318,0.140418 -0.3647501,0.1771558 -0.1415701,0.037956 -0.2693087,0.057145 -0.3836225,0.057145 -0.1891667,0 -0.362468,-0.035106 -0.5199036,-0.1049062 C 8.5845541,8.0777958 8.4486793,7.9777895 8.3323315,7.8488001 8.2163905,7.7181789 8.1285195,7.5683723 8.0679047,7.3993809 8.0076973,7.2287565 7.9771865,7.0475193 7.9771865,6.8560772"
     inkscape:connector-curvature="0" />
  <metadata
     id="metadata10">
    <rdf:RDF>
      <cc:Work>
        <dc:format>image/svg+xml</dc:format>
        <dc:type
           rdf:resource="http://purl.org/dc/dcmitype/StillImage" />
        <cc:license
           rdf:resource="http://creativecommons.org/publicdomain/zero/1.0/" />
        <dc:publisher>
          <cc:Agent
             rdf:about="http://openclipart.org/">
            <dc:title>Openclipart</dc:title>
          </cc:Agent>
        </dc:publisher>
        <dc:title></dc:title>
      </cc:Work>
      <cc:License
         rdf:about="http://creativecommons.org/publicdomain/zero/1.0/">
        <cc:permits
           rdf:resource="http://creativecommons.org/ns#Reproduction" />
        <cc:permits
           rdf:resource="http://creativecommons.org/ns#Distribution" />
        <cc:permits
           rdf:resource="http://creativecommons.org/ns#DerivativeWorks" />
      </cc:License>
    </rdf:RDF>
  </metadata>
</svg>
